<svg xmlns="http://www.w3.org/2000/svg" width="12" height="11.636" viewBox="0 0 12 11.636"><g transform="translate(-1127 -4139)"><path d="M1.076.717a.359.359,0,0,0-.359.359V3.944a.359.359,0,0,0,.359.359H4.123a.359.359,0,0,0,.359-.359V1.076A.359.359,0,0,0,4.123.717H1.076m0-.717H4.123A1.076,1.076,0,0,1,5.2,1.076V3.944A1.076,1.076,0,0,1,4.123,5.019H1.076A1.076,1.076,0,0,1,0,3.944V1.076A1.076,1.076,0,0,1,1.076,0Z" transform="translate(1133.802 4139)" fill="#bd0d44"/><path d="M1.076.717a.359.359,0,0,0-.359.359V3.944a.359.359,0,0,0,.359.359H4.123a.359.359,0,0,0,.359-.359V1.076A.359.359,0,0,0,4.123.717H1.076m0-.717H4.123A1.076,1.076,0,0,1,5.2,1.076V3.944A1.076,1.076,0,0,1,4.123,5.019H1.076A1.076,1.076,0,0,1,0,3.944V1.076A1.076,1.076,0,0,1,1.076,0Z" transform="translate(1133.802 4145.617)" fill="#bd0d44"/><path d="M1.076.717a.359.359,0,0,0-.359.359V3.944a.359.359,0,0,0,.359.359H4.123a.359.359,0,0,0,.359-.359V1.076A.359.359,0,0,0,4.123.717H1.076m0-.717H4.123A1.076,1.076,0,0,1,5.2,1.076V3.944A1.076,1.076,0,0,1,4.123,5.019H1.076A1.076,1.076,0,0,1,0,3.944V1.076A1.076,1.076,0,0,1,1.076,0Z" transform="translate(1127 4139)" fill="#bd0d44"/><path d="M1.076.717a.359.359,0,0,0-.359.359V3.944a.359.359,0,0,0,.359.359H4.123a.359.359,0,0,0,.359-.359V1.076A.359.359,0,0,0,4.123.717H1.076m0-.717H4.123A1.076,1.076,0,0,1,5.2,1.076V3.944A1.076,1.076,0,0,1,4.123,5.019H1.076A1.076,1.076,0,0,1,0,3.944V1.076A1.076,1.076,0,0,1,1.076,0Z" transform="translate(1127 4145.617)" fill="#bd0d44"/></g></svg>