<svg xmlns="http://www.w3.org/2000/svg" width="26.356" height="16" viewBox="0 0 26.356 16"><g transform="translate(0.655 0.223)"><rect width="26" height="16" transform="translate(-0.655 -0.223)" fill="#f0f0f0"/><path d="M0,9.476H10.6V15.96h4.892V9.476h10.6V6.484h-10.6V0H10.6V6.484H0Z" transform="translate(-0.389 -0.202)" fill="#d80027"/><g transform="translate(16.626 10.206)"><path d="M406.92,333.913l5.355,3.276v-3.276Z" transform="translate(-403.2 -333.913)" fill="#0052b4"/><path d="M333.913,333.913l9.075,5.551v-1.57l-6.508-3.982Z" transform="translate(-333.913 -333.913)" fill="#0052b4"/><path d="M340.57,385.409l-6.658-4.073v4.073Z" transform="translate(-333.913 -379.858)" fill="#0052b4"/></g><path d="M333.913,333.913l9.075,5.551v-1.57l-6.508-3.982Z" transform="translate(-317.287 -323.707)" fill="#f0f0f0"/><path d="M333.913,333.913l9.075,5.551v-1.57l-6.508-3.982Z" transform="translate(-317.287 -323.707)" fill="#d80027"/><g transform="translate(-0.389 10.206)"><path d="M4.092,333.913,0,336.416v-2.5Z" transform="translate(0 -333.913)" fill="#0052b4"/><path d="M30.578,356.559V361.4h-7.92Z" transform="translate(-21.503 -355.853)" fill="#0052b4"/></g><path d="M6.508,333.916,0,337.9v1.57H0l9.075-5.551Z" transform="translate(-0.389 -323.709)" fill="#d80027"/><g transform="translate(-0.389 -0.202)"><path d="M5.355,76.283,0,73.007v3.276Z" transform="translate(0 -70.731)" fill="#0052b4"/><path d="M9.075,5.551,0,0V1.57L6.509,5.551Z" fill="#0052b4"/><path d="M47.436,0l6.658,4.073V0Z" transform="translate(-45.019)" fill="#0052b4"/></g><path d="M9.075,5.551,0,0V1.57L6.509,5.551Z" transform="translate(-0.389 -0.202)" fill="#f0f0f0"/><path d="M9.075,5.551,0,0V1.57L6.509,5.551Z" transform="translate(-0.389 -0.202)" fill="#d80027"/><g transform="translate(16.627 -0.202)"><path d="M431.7,100.288l4.092-2.5v2.5Z" transform="translate(-426.715 -94.737)" fill="#0052b4"/><path d="M333.916,4.848V0h7.92Z" transform="translate(-333.916 -0.003)" fill="#0052b4"/></g><path d="M336.482,5.551l6.508-3.981V0h0l-9.075,5.551Z" transform="translate(-317.289 -0.202)" fill="#d80027"/></g></svg>