<svg xmlns="http://www.w3.org/2000/svg" width="20" height="19.278" viewBox="0 0 20 19.278"><g transform="translate(20)"><path d="M144.22,288.57v8.757l4.38-4.38Z" transform="translate(-153.855 -278.055)" fill="#fff"/><path d="M4.454,146.754,0,142.3v8.908Z" transform="translate(-4.454 -137.115)" fill="#fff"/><path d="M146.475,146.4l-4.3,4.3,4.3,4.3Z" transform="translate(-151.656 -141.066)" fill="#fff"/><path d="M144.26.13V8.887l4.378-4.378Z" transform="translate(-153.895 -0.125)" fill="#fff"/><path d="M284.34,6.763l4.381,4.381.362.364.364.362.149.151,1.509,1.505V0l-4.381,4.381-.513.513Z" transform="translate(-301.465)" fill="#fff"/><path d="M284.34,353.99v4.722L286,360.37v-4.723Z" transform="translate(-296.358 -341.091)" fill="#fff"/><path d="M349.7,202.1l4.745,4.745.513.513,2,2v-4.724l-.151-.15-4.745-4.745Z" transform="translate(-369.7 -192.462)" fill="#fff"/></g></svg>