<svg xmlns="http://www.w3.org/2000/svg" width="12" height="12" viewBox="0 0 12 12">
  <path id="phone" d="M3.617,4.521l.02-.012L6.142,3.274l2.7,3.606L7.6,8.539a2.562,2.562,0,0,0,2.405,2.405L11.667,9.7l3.606,2.7L14.049,14.89l-.01.021-.012.02a.726.726,0,0,1-.619.343h-.647A9.487,9.487,0,0,1,3.274,5.786V5.14a.726.726,0,0,1,.343-.619ZM4.2,5.786a8.571,8.571,0,0,0,8.561,8.561h.523l.819-1.663-2.436-1.827-1.356,1.017h-.154A3.488,3.488,0,0,1,6.672,8.391V8.236L7.689,6.88,5.863,4.444,4.2,5.263Z" transform="translate(-3.274 -3.274)" fill="#fff"/>
</svg>
