<svg xmlns="http://www.w3.org/2000/svg" width="24" height="24" viewBox="0 0 24 24">
  <g id="Tik_Tok" data-name="Tik Tok" transform="translate(-97 -12)">
    <rect id="Rectangle_10667" data-name="Rectangle 10667" width="24" height="24" transform="translate(97 12)" fill="#fff" opacity="0"/>
    <g id="Layer_2" transform="translate(90.273 9.5)">
      <path id="Path_69785" data-name="Path 69785" d="M24.636,7.066a6.587,6.587,0,0,1-1.58-4.47l-3.982-.1V19.544a3.708,3.708,0,1,1-2.4-4.145V11.336a7.7,7.7,0,0,0-8.944,7.551c.4,10.15,14.962,10.152,15.366,0-.1-.363-.045-7.128-.059-7.7a10.771,10.771,0,0,0,6.052,1.618V8.61a5.917,5.917,0,0,1-4.449-1.544Z" transform="translate(0)" fill="#fff"/>
    </g>
  </g>
</svg>
