<svg xmlns="http://www.w3.org/2000/svg" width="24" height="24" viewBox="0 0 24 24">
  <g id="WhatsApp" transform="translate(-137 -12)">
    <rect id="Rectangle_10668" data-name="Rectangle 10668" width="24" height="24" transform="translate(137 12)" fill="#fff" opacity="0"/>
    <path id="Icon_corebrands-whatsapp" data-name="Icon corebrands-whatsapp" d="M17.5,14.383c-.3-.152-1.766-.867-2.039-.969s-.473-.149-.672.152-.77.965-.945,1.16-.348.211-.644.078a8.137,8.137,0,0,1-2.4-1.488,8.935,8.935,0,0,1-1.661-2.07c-.176-.3-.02-.465.129-.614s.3-.344.453-.524a2.712,2.712,0,0,0,.3-.5.554.554,0,0,0-.027-.524c-.074-.149-.672-1.621-.922-2.207s-.488-.508-.672-.508c-.172-.016-.371-.016-.57-.016a1.13,1.13,0,0,0-.8.359A3.333,3.333,0,0,0,5.977,9.191,5.863,5.863,0,0,0,7.2,12.269a13.356,13.356,0,0,0,5.1,4.484c.715.3,1.27.481,1.7.629a4.151,4.151,0,0,0,1.883.121A3.107,3.107,0,0,0,17.9,16.078a2.493,2.493,0,0,0,.18-1.426c-.074-.137-.269-.211-.57-.344ZM12.062,21.75h-.016a10.023,10.023,0,0,1-5.059-1.379l-.359-.215-3.75.977,1.008-3.649-.242-.375A9.919,9.919,0,0,1,19.094,4.875,9.794,9.794,0,0,1,22,11.867a9.934,9.934,0,0,1-9.938,9.883Zm8.457-18.3A12.149,12.149,0,0,0,12.047,0,11.893,11.893,0,0,0,1.7,17.84L0,24l6.336-1.652A12.1,12.1,0,0,0,12.047,23.8h0A11.941,11.941,0,0,0,24,11.9a11.785,11.785,0,0,0-3.5-8.411Z" transform="translate(137 12)" fill="#fff"/>
  </g>
</svg>
