<svg id="account-side-menu" xmlns="http://www.w3.org/2000/svg" xmlns:xlink="http://www.w3.org/1999/xlink" width="32" height="32" viewBox="0 0 32 32">
  <defs>
    <clipPath id="clip-path">
      <path id="path11602" d="M27.449-85.312H0v27.449H27.449Z" transform="translate(0 85.312)" fill="#232929"/>
    </clipPath>
  </defs>
  <rect id="Rectangle_7524" data-name="Rectangle 7524" width="32" height="32" fill="#232929" opacity="0"/>
  <g id="g11596" transform="translate(2.275 2.275)">
    <g id="g11598" transform="translate(0 0)">
      <g id="g11600" transform="translate(0 0)" clip-path="url(#clip-path)">
        <path id="Union_1" data-name="Union 1" d="M5.6,1.445A9.563,9.563,0,0,0,.928,4.99a6.407,6.407,0,0,0-.92,3.642,5.134,5.134,0,0,0,2.265,4.124,5.134,5.134,0,0,0,3.047.712,13.089,13.089,0,0,0,3.57-.853,9.461,9.461,0,0,1,2.771-.681,3.684,3.684,0,0,1,.9.081A15.5,15.5,0,0,1,14.7,12.7l.7.253a6.944,6.944,0,0,0,3.786.475,5.109,5.109,0,0,0,3.762-3.82c.77-3.252-1.174-6.26-5.2-8.046A16.009,16.009,0,0,0,11.873,0c-.073,0-.167,0-.261,0A15.052,15.052,0,0,0,5.6,1.445Zm.617,18.243a5.333,5.333,0,1,0,5.333-5.369A5.357,5.357,0,0,0,6.221,19.687Z" transform="translate(24.876 25.915) rotate(180)" fill="#232929"/>
      </g>
    </g>
  </g>
</svg>
