<svg xmlns="http://www.w3.org/2000/svg" width="32" height="32" viewBox="0 0 32 32" style="font-size: 16px !important;">
                  <g id="Group_21947" data-name="Group 21947" transform="translate(-3932.5 -6005)" style="font-size: 16px !important;">
                    <rect id="Rectangle_8208" data-name="Rectangle 8208" width="32" height="32" transform="translate(3932.5 6005)" fill="#6b7280" opacity="0" style="font-size: 16px !important;"></rect>
                    <g id="user" transform="translate(3935.336 6007.25)" style="font-size: 16px !important;">
                      <g id="Group_21779" data-name="Group 21779" transform="translate(3.164 1.75)" style="font-size: 16px !important;">
                        <path id="Ellipse_625_-_Outline" data-name="Ellipse 625 - Outline" d="M4.533-.5A5.054,5.054,0,1,1-.5,4.554,5.05,5.05,0,0,1,4.533-.5Zm0,9.108A4.054,4.054,0,1,0,.5,4.554,4.048,4.048,0,0,0,4.533,8.608Z" transform="translate(5.088)" fill="#6b7280" style="font-size: 16px !important;"></path>
                        <path id="Path_68204_-_Outline" data-name="Path 68204 - Outline" d="M12.785,21.014a26.483,26.483,0,0,1-8-1.239A3.044,3.044,0,0,1,2.93,18.131a2.973,2.973,0,0,1-.014-2.42,10.768,10.768,0,0,1,19.738,0,2.971,2.971,0,0,1-.014,2.419,3.044,3.044,0,0,1-1.854,1.645A26.483,26.483,0,0,1,12.785,21.014Zm0-10.764a9.8,9.8,0,0,0-8.954,5.864,1.946,1.946,0,0,0,.01,1.605,2.043,2.043,0,0,0,1.244,1.1,25.484,25.484,0,0,0,7.7,1.192,25.484,25.484,0,0,0,7.7-1.192,2.043,2.043,0,0,0,1.245-1.1,1.944,1.944,0,0,0,.01-1.6A9.8,9.8,0,0,0,12.785,10.25Z" transform="translate(-3.164 3.498)" fill="#6b7280" style="font-size: 16px !important;"></path>
                      </g>
                    </g>
                  </g>
                </svg>