<svg id="addresses-side-menu" xmlns="http://www.w3.org/2000/svg" width="32" height="32" viewBox="0 0 32 32">
  <rect id="Rectangle_7524" data-name="Rectangle 7524" width="32" height="32" fill="#232929" opacity="0"/>
  <g id="Icon" transform="translate(2.579 4)">
    <g id="_20">
      <path id="Path_69163" data-name="Path 69163" d="M1.363,30.936h.031a1.347,1.347,0,0,0,.888-.335L13.248,20.93,24.215,30.6A1.34,1.34,0,0,0,26,28.6L14.146,17.869a1.343,1.343,0,0,0-1.8,0L.465,28.609A1.336,1.336,0,0,0,1.363,30.936Zm11.885-9.042L3.113,30.833V40.69a1.451,1.451,0,0,0,1.45,1.45H21.939a1.451,1.451,0,0,0,1.45-1.45V30.833Zm0,5.073A6.518,6.518,0,1,1,6.73,33.486a6.515,6.515,0,0,1,6.518-6.518Zm0,2.25a3.134,3.134,0,0,0-3.133,3.133c0,1.249,1.631,3.778,2.539,5.088a.723.723,0,0,0,1.192,0c.908-1.311,2.534-3.84,2.534-5.088a3.131,3.131,0,0,0-3.133-3.133Zm0,1.584A1.548,1.548,0,1,1,11.7,32.35,1.546,1.546,0,0,1,13.248,30.8Z" transform="translate(-0.021 -17.525)" fill="#232929"/>
    </g>
  </g>
</svg>
