<svg xmlns="http://www.w3.org/2000/svg" width="24" height="24" viewBox="0 0 24 24">
  <g id="addresses" transform="translate(-8.25)">
    <rect id="Rectangle_7524" data-name="Rectangle 7524" width="24" height="24" transform="translate(8.25)" fill="#fff" opacity="0"/>
    <g id="Icon" transform="translate(8.25 1)">
      <g id="_20">
        <path id="Path_69163" data-name="Path 69163" d="M1.223,29.533H1.25a1.206,1.206,0,0,0,.795-.3l9.819-8.659,9.819,8.659a1.2,1.2,0,0,0,1.6-1.788L12.668,17.833a1.2,1.2,0,0,0-1.608,0L.419,27.449A1.2,1.2,0,0,0,1.223,29.533Zm10.641-8.1-9.075,8v8.825a1.3,1.3,0,0,0,1.3,1.3H19.645a1.3,1.3,0,0,0,1.3-1.3V29.44Zm0,4.542a5.836,5.836,0,1,1-5.836,5.836,5.833,5.833,0,0,1,5.836-5.836Zm0,2.015a2.806,2.806,0,0,0-2.8,2.8c0,1.118,1.46,3.382,2.273,4.556a.648.648,0,0,0,1.067,0c.813-1.174,2.269-3.438,2.269-4.556a2.8,2.8,0,0,0-2.8-2.8Zm0,1.419A1.386,1.386,0,1,1,10.478,30.8a1.384,1.384,0,0,1,1.386-1.386Z" transform="translate(-0.021 -17.525)" fill="#fff"/>
      </g>
    </g>
  </g>
</svg>
