<svg xmlns="http://www.w3.org/2000/svg" width="32" height="32" viewBox="0 0 32 32" style="font-size: 16px !important;">
                  <g id="Group_21947" data-name="Group 21947" transform="translate(-3932.5 -6005)" style="font-size: 16px !important;">
                    <rect id="Rectangle_8208" data-name="Rectangle 8208" width="32" height="32" transform="translate(3932.5 6005)" fill="#6b7280" opacity="0" style="font-size: 16px !important;"></rect>
                    <g id="crosshairs" transform="translate(3935.5 6008)" style="font-size: 16px !important;">
                      <g id="Group_21784" data-name="Group 21784" transform="translate(1 1)" style="font-size: 16px !important;">
                        <path id="Ellipse_626" data-name="Ellipse 626" d="M9.75-.5A10.25,10.25,0,1,1-.5,9.75,10.262,10.262,0,0,1,9.75-.5Zm0,19.5A9.25,9.25,0,1,0,.5,9.75,9.26,9.26,0,0,0,9.75,19Z" transform="translate(2.25 2.25)" fill="#6b7280" style="font-size: 16px !important;"></path>
                        <path id="Ellipse_627" data-name="Ellipse 627" d="M3.375-.5A3.875,3.875,0,1,1-.5,3.375,3.879,3.879,0,0,1,3.375-.5Zm0,6.75A2.875,2.875,0,1,0,.5,3.375,2.878,2.878,0,0,0,3.375,6.25Z" transform="translate(8.625 8.625)" fill="#6b7280" style="font-size: 16px !important;"></path>
                        <path id="Line_259" data-name="Line 259" d="M0,2.75a.5.5,0,0,1-.5-.5V0A.5.5,0,0,1,0-.5.5.5,0,0,1,.5,0V2.25A.5.5,0,0,1,0,2.75Z" transform="translate(12)" fill="#6b7280" style="font-size: 16px !important;"></path>
                        <path id="Line_260" data-name="Line 260" d="M2.25.5H0A.5.5,0,0,1-.5,0,.5.5,0,0,1,0-.5H2.25a.5.5,0,0,1,.5.5A.5.5,0,0,1,2.25.5Z" transform="translate(21.75 12)" fill="#6b7280" style="font-size: 16px !important;"></path>
                        <path id="Line_261" data-name="Line 261" d="M0,2.75a.5.5,0,0,1-.5-.5V0A.5.5,0,0,1,0-.5.5.5,0,0,1,.5,0V2.25A.5.5,0,0,1,0,2.75Z" transform="translate(12 21.75)" fill="#6b7280" style="font-size: 16px !important;"></path>
                        <path id="Line_262" data-name="Line 262" d="M2.25.5H0A.5.5,0,0,1-.5,0,.5.5,0,0,1,0-.5H2.25a.5.5,0,0,1,.5.5A.5.5,0,0,1,2.25.5Z" transform="translate(0 12)" fill="#6b7280" style="font-size: 16px !important;"></path>
                      </g>
                    </g>
                  </g>
                </svg>