<svg xmlns="http://www.w3.org/2000/svg" width="24" height="24" viewBox="0 0 24 24">
  <g id="contracts" transform="translate(-7.333)">
    <rect id="Rectangle_7524" data-name="Rectangle 7524" width="24" height="24" transform="translate(7.333)" fill="#fff" opacity="0"/>
    <path id="Path_66784" data-name="Path 66784" d="M19.669,6.485V7.37a.443.443,0,0,1-.443.443H10.371a.443.443,0,0,1-.443-.443V6.485a2.214,2.214,0,0,1,2.214-2.214h.487a2.214,2.214,0,0,1,4.339,0h.487a2.214,2.214,0,0,1,2.214,2.214ZM24.1,8.256V24.2a2.214,2.214,0,0,1-2.214,2.214H7.714A2.214,2.214,0,0,1,5.5,24.2V8.256A2.214,2.214,0,0,1,7.714,6.042H9.087a3.542,3.542,0,0,0-.044.443V7.37A1.328,1.328,0,0,0,10.371,8.7h8.856A1.328,1.328,0,0,0,20.554,7.37V6.485a3.541,3.541,0,0,0-.044-.443h1.373A2.214,2.214,0,0,1,24.1,8.256ZM12.452,19.564a.443.443,0,0,0-.62,0L10.477,20.91l-.682-.682a.441.441,0,0,0-.62.629l.992.992a.443.443,0,0,0,.31.133.452.452,0,0,0,.319-.133l1.656-1.656a.443.443,0,0,0,0-.629Zm0-4.428a.443.443,0,0,0-.62,0l-1.355,1.346L9.795,15.8a.441.441,0,0,0-.62.629l.992.992a.443.443,0,0,0,.31.133.452.452,0,0,0,.319-.133l1.656-1.656a.443.443,0,0,0,0-.629Zm0-4.428a.443.443,0,0,0-.62,0l-1.355,1.346-.682-.682a.441.441,0,0,0-.62.629l.992.992a.443.443,0,0,0,.31.133.452.452,0,0,0,.319-.133l1.656-1.656a.443.443,0,0,0,0-.629Zm8.1,10a.443.443,0,0,0-.443-.443H15.684a.443.443,0,1,0,0,.886h4.428A.443.443,0,0,0,20.554,20.707Zm0-4.428a.443.443,0,0,0-.443-.443H15.684a.443.443,0,1,0,0,.886h4.428A.443.443,0,0,0,20.554,16.279Zm0-4.428a.443.443,0,0,0-.443-.443H15.684a.443.443,0,1,0,0,.886h4.428A.443.443,0,0,0,20.554,11.851Z" transform="translate(4.535 -2.497)" fill="#fff"/>
  </g>
</svg>
