<?xml version="1.0" encoding="UTF-8"?>
<svg id="Layer_1" xmlns="http://www.w3.org/2000/svg" version="1.1" viewBox="0 0 24 24">
  <!-- Generator: Adobe Illustrator 29.5.1, SVG Export Plug-In . SVG Version: 2.1.0 Build 141)  -->
  <defs>
    <style>
      .st0 {
        fill: #fff;
      }
    </style>
  </defs>
  <path class="st0" d="M23.6,19.5h0c0-.1,0-.1,0-.1-.8-.9-1.8-1.7-2.8-2.3-.3-.2-1.1-.8-1.5-1,3.1-4.9,1.6-11.3-3.3-14.4C11.1-1.5,4.7,0,1.6,4.9-1.5,9.8,0,16.2,4.9,19.3c3.4,2.1,7.7,2.1,11.1,0,.3.4.8,1.2,1,1.5.7,1,1.4,1.9,2.3,2.8h0s.1,0,.1,0h0c.4.3.9.4,1.3.4.7,0,1.3-.3,1.9-.7l.5-.5h0c.8-.9.9-2.2.3-3.2h0s0,0,0,0ZM16.5,16.5c-3.3,3.4-8.8,3.5-12.2.1-3.4-3.3-3.5-8.8-.1-12.2,0,0,0,0,.1-.1,3.3-3.4,8.8-3.5,12.2-.1,3.4,3.3,3.5,8.8.1,12.2,0,0,0,0-.1.1ZM22,21.5l-.5.5c-.2.2-.4.2-.6.2-.1,0-.3,0-.4,0-.8-.7-1.4-1.5-2-2.4-.2-.4-.8-1.1-1.1-1.6.3-.2.5-.5.8-.8.4.3,1.2.8,1.6,1.1.9.6,1.7,1.2,2.4,2,.2.3,0,.7-.2,1h0Z"/>
  <path class="st0" d="M11.6,9.2l-1.1-1.1,1.9-1.9-1.9-1.9,1.1-1.1,3,3-3,3ZM11.6,9.2l-1.1-1.1,1.9-1.9-1.9-1.9,1.1-1.1,3,3-3,3ZM8.9,17.3l-3-3,3-3,1.1,1.1-1.9,1.9,1.9,1.9-1.1,1.1ZM10.3,15.1h-3.2s0-1.6,0-1.6h3.2c2.2,0,4-1.8,4-4h1.6c0,3.1-2.5,5.7-5.7,5.7ZM10.3,15.1h-3.2s0-1.6,0-1.6h3.2c2.2,0,4-1.8,4-4h1.6c0,3.1-2.5,5.7-5.7,5.7ZM6.2,11.1h-1.6c0-3.1,2.5-5.7,5.6-5.7,0,0,0,0,0,0h3.2s0,1.6,0,1.6h-3.2c-2.2,0-4.1,1.8-4,4.1,0,0,0,0,0,0Z"/>
</svg>