<svg id="exit-side-menu" xmlns="http://www.w3.org/2000/svg" width="32" height="32" viewBox="0 0 32 32">
  <rect id="Rectangle_7524" data-name="Rectangle 7524" width="32" height="32" fill="#232929" opacity="0"/>
  <g id="leave" transform="translate(4 4)">
    <g id="Group_18822" data-name="Group 18822">
      <path id="Path_67101" data-name="Path 67101" d="M23.625,9.219l-5-4A1,1,0,0,0,17,6V9H11a1,1,0,0,0,0,2h6v3a1,1,0,0,0,1.625.781l5-4a1,1,0,0,0,0-1.562Z" transform="translate(0 0)" fill="#232929"/>
      <path id="Path_67102" data-name="Path 67102" d="M13,7a1,1,0,0,0,1-1V1a1,1,0,0,0-1-1H1A1,1,0,0,0,0,1V18a1,1,0,0,0,.419.814l7,5A.988.988,0,0,0,8,24a1.019,1.019,0,0,0,.458-.11A1,1,0,0,0,9,23V19h4a1,1,0,0,0,1-1V14a1,1,0,0,0-2,0v3H9V6.016A1,1,0,0,0,8.583,5.2L4.112,2H12V6A1,1,0,0,0,13,7Z" fill="#232929"/>
    </g>
  </g>
</svg>
