<svg xmlns="http://www.w3.org/2000/svg" width="32" height="32" viewBox="0 0 32 32" style="font-size: 16px !important;">
                  <g id="Group_21959" data-name="Group 21959" transform="translate(-3932 -6005)" style="font-size: 16px !important;">
                    <rect id="Rectangle_8208" data-name="Rectangle 8208" width="32" height="32" transform="translate(3932 6005)" fill="#6b7280" opacity="0" style="font-size: 16px !important;"></rect>
                    <g id="Group_17987" data-name="Group 17987" transform="translate(3840 5221)" style="font-size: 16px !important;">
                      <g id="Rectangle_7604" data-name="Rectangle 7604" opacity="0" style="font-size: 16px !important;">
                        <path id="Rectangle_7604_-_Outline" data-name="Rectangle 7604 - Outline" d="M1,1V23H23V1H1M0,0H24V24H0Z" transform="translate(96 788)" fill="#6b7280" style="font-size: 16px !important;"></path>
                      </g>
                      <g id="arrow-door-out-3" transform="translate(92.75 786.178)" style="font-size: 16px !important;">
                        <g id="Group_21960" data-name="Group 21960" transform="translate(3.25 2.25)" style="font-size: 16px !important;">
                          <path id="Path_68285" data-name="Path 68285" d="M16.107,25.893H4.964A2.217,2.217,0,0,1,2.75,23.679V3.964A2.217,2.217,0,0,1,4.964,1.75H16.107a2.217,2.217,0,0,1,2.214,2.214V8.25h-1V3.964A1.216,1.216,0,0,0,16.107,2.75H4.964A1.216,1.216,0,0,0,3.75,3.964V23.679a1.216,1.216,0,0,0,1.214,1.214H16.107a1.216,1.216,0,0,0,1.214-1.214V19.393h1v4.286A2.217,2.217,0,0,1,16.107,25.893Z" transform="translate(-3.25 -2.25)" fill="#6b7280" style="font-size: 16px !important;"></path>
                          <path id="Path_68286" data-name="Path 68286" d="M14.854,16.032l-.707-.707,4.361-4.361L14.146,6.6l.707-.707,5.068,5.068Z" transform="translate(4.786 0.607)" fill="#6b7280" style="font-size: 16px !important;"></path>
                          <path id="Line_269" data-name="Line 269" d="M10.286.5H0v-1H10.286Z" transform="translate(13.714 11.571)" fill="#6b7280" style="font-size: 16px !important;"></path>
                          <path id="Path_68287" data-name="Path 68287" d="M3.72,24.855,3.192,24l5.695-3.531a1.21,1.21,0,0,0,.574-1.032V7.635A1.222,1.222,0,0,0,8.888,6.6L3.194,3.073l.527-.85,5.693,3.53a2.228,2.228,0,0,1,1.047,1.882V19.441a2.2,2.2,0,0,1-1.047,1.882Z" transform="translate(-3.103 -1.966)" fill="#6b7280" style="font-size: 16px !important;"></path>

                        </g>
                      </g>
                    </g>
                  </g>
                </svg>