<svg id="Layer_1" enable-background="new 0 0 26 16" viewBox="0 0 26 16" xmlns="http://www.w3.org/2000/svg" width="300" height="300" version="1.1" xmlns:xlink="http://www.w3.org/1999/xlink" xmlns:svgjs="http://svgjs.dev/svgjs"><g width="100%" height="100%" transform="matrix(1,0,0,1,0,0)"><g id="eye-7"><path d="m13 0c-7.18 0-13 8-13 8s5.82 8 13 8 13-8 13-8-5.82-8-13-8zm0 15c-5.495 0-10.259-5.216-11.727-6.999 1.471-1.783 6.246-7.001 11.727-7.001 5.495 0 10.259 5.216 11.727 6.999-1.471 1.783-6.246 7.001-11.727 7.001z" fill="#ffffff" fill-opacity="1" data-original-color="#000000ff" stroke="none" stroke-opacity="1"/><path d="m13 3c-2.761 0-5 2.238-5 5s2.239 5 5 5c2.762 0 5-2.238 5-5s-2.238-5-5-5zm1.5 5c-.828 0-1.5-.672-1.5-1.5s.672-1.5 1.5-1.5 1.5.672 1.5 1.5-.672 1.5-1.5 1.5z" fill="#ffffff" fill-opacity="1" data-original-color="#000000ff" stroke="none" stroke-opacity="1"/></g></g></svg>