<svg id="Layer_1" height="300" viewBox="0 0 512 512" width="300" xmlns="http://www.w3.org/2000/svg" data-name="Layer 1" version="1.1" xmlns:xlink="http://www.w3.org/1999/xlink" xmlns:svgjs="http://svgjs.dev/svgjs"><g width="100%" height="100%" transform="matrix(1,0,0,1,0,0)"><path d="m511.845 93.736-33.045 308.01c-1.55 22.457-15.5 25.132-39.9 22.371l-.379-25.15 12.163 1.229 33.389-309.275-354.22-35.83-4.686 43.361-28.208 1.253 5.115-47.431c1.6-14.855 15.326-25.634 30.692-24.087l354.2 35.834c15.363 1.561 26.488 14.856 24.879 29.715zm-100.239 32.6 14.794 313.544c.7 14.926-11.208 27.57-26.623 28.247l-355.764 15.8c-15.415.689-28.477-10.845-29.182-25.767l-14.801-313.539c-.7-14.926 11.209-27.568 26.616-28.25l355.772-15.8c15.425-.685 28.482 10.841 29.188 25.767zm-368.946 327.671 355.765-15.807-14.72-310.627-355.765 15.802zm337.4-108.4a39.9 39.9 0 0 0 -11.135-25.717l-25.025-26.109a21.443 21.443 0 0 0 -30.4 1.351l-45.275 50.741-98.331-117.242a21.316 21.316 0 0 0 -32.694.238l-76.851 98.015a39.7 39.7 0 0 0 -8.48 26.375l4.1 86.621 327.871-14.562zm-57.5-107.05c21.2-.94 37.581-18.315 36.608-38.838s-18.919-36.379-40.12-35.439-37.581 18.318-36.61 38.843 18.912 36.384 40.115 35.437z" fill="#ffffff" fill-opacity="1" data-original-color="#000000ff" stroke="none" stroke-opacity="1"/></g></svg>