<svg xmlns="http://www.w3.org/2000/svg" width="32" height="32" viewBox="0 0 32 32" style="font-size: 16px !important;">
                  <g id="Group_21947" data-name="Group 21947" transform="translate(-3932 -6005)" style="font-size: 16px !important;">
                    <rect id="Rectangle_8208" data-name="Rectangle 8208" width="32" height="32" transform="translate(3932 6005)" fill="#6b7280" opacity="0" style="font-size: 16px !important;"></rect>
                    <g id="Group_21946" data-name="Group 21946" transform="translate(3921.124 6008.26)" style="font-size: 16px !important;">
                      <path id="Path_68267" data-name="Path 68267" d="M24.589,0H16.272a1.4,1.4,0,0,0-1.4,1.4v8.749a1.4,1.4,0,0,0,1.4,1.4h8.317a1.4,1.4,0,0,0,1.4-1.4V1.4A1.4,1.4,0,0,0,24.589,0Zm.6,10.146a.6.6,0,0,1-.6.6H16.272a.6.6,0,0,1-.6-.6V1.4a.6.6,0,0,1,.6-.6h8.317a.6.6,0,0,1,.6.6v8.749Z" transform="translate(0 0)" fill="#6b7280" style="font-size: 16px !important;"></path>
                      <path id="Path_68267_-_Outline" data-name="Path 68267 - Outline" d="M16.272-.125h8.317A1.523,1.523,0,0,1,26.11,1.4v8.749a1.523,1.523,0,0,1-1.521,1.521H16.272a1.523,1.523,0,0,1-1.521-1.521V1.4A1.523,1.523,0,0,1,16.272-.125Zm8.317,11.542a1.273,1.273,0,0,0,1.271-1.271V1.4A1.273,1.273,0,0,0,24.589.125H16.272A1.273,1.273,0,0,0,15,1.4v8.749a1.273,1.273,0,0,0,1.271,1.271ZM16.272.671h8.317a.726.726,0,0,1,.725.725v8.749a.726.726,0,0,1-.725.725H16.272a.726.726,0,0,1-.725-.725V1.4A.726.726,0,0,1,16.272.671Zm8.792,9.474V1.4a.475.475,0,0,0-.475-.475H16.272A.475.475,0,0,0,15.8,1.4v8.749a.475.475,0,0,0,.475.475h8.317a.475.475,0,0,0,.475-.475Z" transform="translate(0 0)" fill="#6b7280" style="font-size: 16px !important;"></path>
                      <path id="Path_68268" data-name="Path 68268" d="M283.616,173.736H275.3a1.4,1.4,0,0,0-1.4,1.4v14.042a1.4,1.4,0,0,0,1.4,1.4h8.317a1.4,1.4,0,0,0,1.4-1.4V175.132A1.4,1.4,0,0,0,283.616,173.736Zm.6,15.438a.6.6,0,0,1-.6.6H275.3a.6.6,0,0,1-.6-.6V175.132a.6.6,0,0,1,.6-.6h8.317a.6.6,0,0,1,.6.6Z" transform="translate(-246.136 -165.09)" fill="#6b7280" style="font-size: 16px !important;"></path>
                      <path id="Path_68268_-_Outline" data-name="Path 68268 - Outline" d="M275.3,173.611h8.317a1.523,1.523,0,0,1,1.521,1.521v14.042a1.523,1.523,0,0,1-1.521,1.521H275.3a1.523,1.523,0,0,1-1.521-1.521V175.132A1.523,1.523,0,0,1,275.3,173.611Zm8.317,16.834a1.273,1.273,0,0,0,1.271-1.271V175.132a1.273,1.273,0,0,0-1.271-1.271H275.3a1.273,1.273,0,0,0-1.271,1.271v14.042a1.273,1.273,0,0,0,1.271,1.271ZM275.3,174.407h8.317a.726.726,0,0,1,.725.725v14.042a.726.726,0,0,1-.725.725H275.3a.726.726,0,0,1-.725-.725V175.132A.726.726,0,0,1,275.3,174.407Zm8.317,15.242a.475.475,0,0,0,.475-.475V175.132a.475.475,0,0,0-.475-.475H275.3a.475.475,0,0,0-.475.475v14.042a.475.475,0,0,0,.475.475Z" transform="translate(-246.136 -165.09)" fill="#6b7280" style="font-size: 16px !important;"></path>
                      <path id="Path_68269" data-name="Path 68269" d="M24.589,280.085H16.272a1.4,1.4,0,0,0-1.4,1.4v8.749a1.4,1.4,0,0,0,1.4,1.4h8.317a1.4,1.4,0,0,0,1.4-1.4v-8.749A1.4,1.4,0,0,0,24.589,280.085Zm.6,10.146a.6.6,0,0,1-.6.6H16.272a.6.6,0,0,1-.6-.6v-8.749a.6.6,0,0,1,.6-.6h8.317a.6.6,0,0,1,.6.6v8.749Z" transform="translate(0 -266.146)" fill="#6b7280" style="font-size: 16px !important;"></path>
                      <path id="Path_68269_-_Outline" data-name="Path 68269 - Outline" d="M16.272,279.96h8.317a1.523,1.523,0,0,1,1.521,1.521v8.749a1.523,1.523,0,0,1-1.521,1.521H16.272a1.523,1.523,0,0,1-1.521-1.521v-8.749A1.523,1.523,0,0,1,16.272,279.96ZM24.589,291.5a1.273,1.273,0,0,0,1.271-1.271v-8.749a1.273,1.273,0,0,0-1.271-1.271H16.272A1.273,1.273,0,0,0,15,281.481v8.749a1.273,1.273,0,0,0,1.271,1.271Zm-8.317-10.745h8.317a.726.726,0,0,1,.725.725v8.749a.726.726,0,0,1-.725.725H16.272a.726.726,0,0,1-.725-.725v-8.749A.726.726,0,0,1,16.272,280.756Zm8.792,9.474v-8.749a.475.475,0,0,0-.475-.475H16.272a.475.475,0,0,0-.475.475v8.749a.475.475,0,0,0,.475.475h8.317a.475.475,0,0,0,.475-.475Z" transform="translate(0 -266.146)" fill="#6b7280" style="font-size: 16px !important;"></path>
                      <path id="Path_68270" data-name="Path 68270" d="M283.616,0H275.3a1.4,1.4,0,0,0-1.4,1.4V5.251a1.4,1.4,0,0,0,1.4,1.4h8.317a1.4,1.4,0,0,0,1.4-1.4V1.4a1.4,1.4,0,0,0-1.4-1.4Zm.6,5.251a.6.6,0,0,1-.6.6H275.3a.6.6,0,0,1-.6-.6V1.4a.6.6,0,0,1,.6-.6h8.317a.6.6,0,0,1,.6.6Z" transform="translate(-246.136)" fill="#6b7280" style="font-size: 16px !important;"></path>
                      <path id="Path_68270_-_Outline" data-name="Path 68270 - Outline" d="M275.3-.125h8.317A1.523,1.523,0,0,1,285.137,1.4V5.251a1.523,1.523,0,0,1-1.521,1.521H275.3a1.523,1.523,0,0,1-1.521-1.521V1.4A1.523,1.523,0,0,1,275.3-.125Zm8.317,6.647a1.273,1.273,0,0,0,1.271-1.271V1.4A1.273,1.273,0,0,0,283.616.125H275.3A1.273,1.273,0,0,0,274.028,1.4V5.251A1.273,1.273,0,0,0,275.3,6.522ZM275.3.671h8.317a.726.726,0,0,1,.725.725V5.251a.726.726,0,0,1-.725.725H275.3a.726.726,0,0,1-.725-.725V1.4A.726.726,0,0,1,275.3.671Zm8.317,5.054a.475.475,0,0,0,.475-.475V1.4a.475.475,0,0,0-.475-.475H275.3a.475.475,0,0,0-.475.475V5.251a.475.475,0,0,0,.475.475Z" transform="translate(-246.136)" fill="#6b7280" style="font-size: 16px !important;"></path>
                    </g>
                  </g>
                </svg>