<svg id="Layer_1" enable-background="new 0 0 512 512" viewBox="0 0 512 512" xmlns="http://www.w3.org/2000/svg" width="300" height="300" version="1.1" xmlns:xlink="http://www.w3.org/1999/xlink" xmlns:svgjs="http://svgjs.dev/svgjs"><g width="100%" height="100%" transform="matrix(1,0,0,1,0,0)"><g id="Layer_2_00000162312339338780693790000014413633418790755748_"><g id="Layer_2_copy_7"><g id="_12"><path d="m425.2 35h-338.4c-47.9 0-86.8 38.9-86.8 86.8v268.3c0 48 38.9 86.8 86.8 86.8h338.3c48 0 86.8-38.9 86.8-86.8v-268.3c.1-47.9-38.8-86.8-86.7-86.8zm-194.4 40.5c0-7.4 6-13.5 13.5-13.5h23.5c7.4 0 13.5 6 13.5 13.5v23.5c0 7.4-6 13.5-13.5 13.5h-23.5c-7.4 0-13.5-6-13.5-13.5zm-93.2 0c0-7.4 6-13.4 13.4-13.5h23.5c7.4 0 13.5 6 13.5 13.4v23.6c0 7.4-6 13.5-13.5 13.5h-23.5c-7.4 0-13.4-6-13.4-13.5zm-42.8 361c0 7.4-6 13.5-13.5 13.5h-23.5c-7.4 0-13.5-6-13.5-13.5v-23.5c0-7.4 6-13.5 13.5-13.5h23.5c7.4 0 13.5 6 13.5 13.5zm0-337.5c0 7.4-6 13.4-13.5 13.4h-23.5c-7.4 0-13.5-6-13.5-13.4v-23.5c0-7.4 6-13.5 13.5-13.5h23.5c7.4 0 13.5 6 13.5 13.5zm93.2 337.5c0 7.4-6 13.5-13.4 13.5h-23.6c-7.4 0-13.5-6-13.5-13.5v-23.5c0-7.4 6-13.4 13.5-13.4h23.5c7.4 0 13.5 6 13.5 13.4zm-23-119.6v-121.8c0-33.3 36.1-54.1 64.9-37.5l105.5 60.9c28.8 16.7 28.8 58.3 0 74.9l-105.5 60.9c-28.8 16.7-64.9-4.1-64.9-37.4zm116.2 119.6c0 7.4-6 13.5-13.5 13.5h-23.5c-7.4 0-13.5-6-13.5-13.5v-23.5c0-7.4 6-13.5 13.5-13.5h23.5c7.4 0 13.5 6 13.5 13.5zm93.2 0c0 7.4-6 13.4-13.4 13.5h-23.5c-7.4 0-13.5-6-13.5-13.5v-23.5c0-7.4 6-13.5 13.5-13.5h23.5c7.4 0 13.4 6 13.4 13.5zm0-337.5c0 7.4-6 13.4-13.4 13.5h-23.5c-7.4 0-13.4-6-13.5-13.4v-23.6c0-7.4 6-13.5 13.5-13.5h23.5c7.4 0 13.5 6 13.5 13.5zm93.2 337.5c0 7.4-6 13.5-13.5 13.5h-23.5c-7.4 0-13.5-6-13.5-13.5v-23.5c0-7.4 6-13.5 13.5-13.5h23.5c7.4 0 13.5 6 13.5 13.5zm0-337.5c0 7.4-6 13.5-13.5 13.5h-23.5c-7.4 0-13.5-6-13.5-13.4v-23.6c0-7.4 6-13.5 13.5-13.5h23.5c7.4 0 13.5 6 13.5 13.5z" fill="#ffffff" fill-opacity="1" data-original-color="#000000ff" stroke="none" stroke-opacity="1"/></g></g></g></g></svg>