<svg id="month-contracts-side-menu" xmlns="http://www.w3.org/2000/svg" width="32" height="32" viewBox="0 0 32 32">
  <rect id="Rectangle_7524" data-name="Rectangle 7524" width="32" height="32" fill="#232929" opacity="0"/>
  <path id="Path_66784" data-name="Path 66784" d="M20.631,6.755V7.7a.473.473,0,0,1-.473.473H10.7a.473.473,0,0,1-.473-.473V6.755a2.364,2.364,0,0,1,2.364-2.364h.52a2.364,2.364,0,0,1,4.634,0h.52a2.364,2.364,0,0,1,2.364,2.364Zm4.728,1.891V25.669a2.364,2.364,0,0,1-2.364,2.364H7.864A2.364,2.364,0,0,1,5.5,25.669V8.647A2.364,2.364,0,0,1,7.864,6.283H9.33a3.783,3.783,0,0,0-.047.473V7.7A1.418,1.418,0,0,0,10.7,9.119h9.457A1.418,1.418,0,0,0,21.576,7.7V6.755a3.782,3.782,0,0,0-.047-.473h1.466A2.364,2.364,0,0,1,25.359,8.647ZM12.923,20.723a.473.473,0,0,0-.662,0L10.815,22.16l-.728-.728a.471.471,0,0,0-.662.671l1.059,1.059a.473.473,0,0,0,.331.142.482.482,0,0,0,.34-.142l1.768-1.768a.473.473,0,0,0,0-.671Zm0-4.728a.473.473,0,0,0-.662,0l-1.447,1.437-.728-.728a.471.471,0,0,0-.662.671l1.059,1.059a.473.473,0,0,0,.331.142.482.482,0,0,0,.34-.142l1.768-1.768a.473.473,0,0,0,0-.671Zm0-4.728a.473.473,0,0,0-.662,0L10.815,12.7l-.728-.728a.471.471,0,0,0-.662.671l1.059,1.059a.473.473,0,0,0,.331.142.482.482,0,0,0,.34-.142l1.768-1.768a.473.473,0,0,0,0-.671Zm8.653,10.677a.473.473,0,0,0-.473-.473H16.375a.473.473,0,1,0,0,.946H21.1A.473.473,0,0,0,21.576,21.943Zm0-4.728a.473.473,0,0,0-.473-.473H16.375a.473.473,0,1,0,0,.946H21.1A.473.473,0,0,0,21.576,17.214Zm0-4.728a.473.473,0,0,0-.473-.473H16.375a.473.473,0,1,0,0,.946H21.1A.473.473,0,0,0,21.576,12.486Z" transform="translate(0.571 0.735)" fill="#232929"/>
</svg>
