<svg xmlns="http://www.w3.org/2000/svg" width="24.654" height="24.034" viewBox="0 0 24.654 24.034"><g transform="translate(-350.346 -311.505)"><g transform="translate(350.846 311.527)"><rect width="24" height="24" transform="translate(0.154 -0.009)" fill="#fff" opacity="0"/><g transform="translate(0 0.478)"><path d="M.5,7.717h-1V-.5h1Z" transform="translate(9.021 5.413)" fill="#fff"/><path d="M7.717.5H-.5v-1H7.717Z" transform="translate(5.413 9.021)" fill="#fff"/><path d="M7.015,7.515a.5.5,0,0,1-.354-.146L-.354.354a.5.5,0,0,1,0-.707.5.5,0,0,1,.707,0L7.369,6.662a.5.5,0,0,1-.354.854Z" transform="translate(16.019 16.019)" fill="#fff"/><path d="M9.021-.5A9.521,9.521,0,1,1-.5,9.021,9.532,9.532,0,0,1,9.021-.5Zm0,18.042A8.521,8.521,0,1,0,.5,9.021,8.531,8.531,0,0,0,9.021,17.542Z" fill="#fff"/></g></g></g></svg>