<svg xmlns="http://www.w3.org/2000/svg" width="24" height="24" viewBox="0 0 24 24">
  <g id="requests" transform="translate(-137 -6)">
    <rect id="Rectangle_7524" data-name="Rectangle 7524" width="24" height="24" transform="translate(137 6)" fill="#fff" opacity="0"/>
    <path id="Path_66309" data-name="Path 66309" d="M21.084,13.695a1.334,1.334,0,0,1-.943.391H18.256a1.334,1.334,0,0,1-1.334-1.334V10.867a1.334,1.334,0,0,1,.391-.943L20.932,6.3l-.2-.018h-16A2.223,2.223,0,0,0,2.5,8.5V20.061a2.223,2.223,0,0,0,2.223,2.223h.436l1.4,2.445a.436.436,0,0,0,.765,0l1.4-2.445H20.728a2.223,2.223,0,0,0,2.223-2.223V11.828ZM6.5,10.281h7.113a.445.445,0,0,1,0,.889H6.5a.445.445,0,0,1,0-.889Zm0,3.557h7.113a.445.445,0,1,1,0,.889H6.5a.445.445,0,1,1,0-.889ZM18.95,18.283H6.5a.445.445,0,1,1,0-.889H18.95a.445.445,0,1,1,0,.889ZM25.983,5.026a1.778,1.778,0,0,1,0,2.507l-5.522,5.531a.436.436,0,0,1-.32.133H18.256a.453.453,0,0,1-.445-.445V10.867a.436.436,0,0,1,.133-.32l5.531-5.522a1.778,1.778,0,0,1,2.507,0Z" transform="translate(134.5 3.268)" fill="#fff"/>
  </g>
</svg>
