<?xml version="1.0" encoding="UTF-8"?>
<svg id="Layer_1" xmlns="http://www.w3.org/2000/svg" version="1.1" viewBox="0 0 24 24">
  <!-- Generator: Adobe Illustrator 29.5.0, SVG Export Plug-In . SVG Version: 2.1.0 Build 137)  -->
  <defs>
    <style>
      .st0 {
        fill: #fff;
        fill-rule: evenodd;
      }
    </style>
  </defs>
  <path class="st0" d="M1.2,6c0-.4.3-.8.8-.8h20c.4,0,.8.3.8.8s-.3.8-.8.8H2c-.4,0-.8-.3-.8-.8Z"/>
  <path class="st0" d="M11.2,10c0-.4.3-.8.8-.8h10c.4,0,.8.3.8.8s-.3.8-.8.8h-10c-.4,0-.8-.3-.8-.8Z"/>
  <path class="st0" d="M11.2,14c0-.4.3-.8.8-.8h10c.4,0,.8.3.8.8s-.3.8-.8.8h-10c-.4,0-.8-.3-.8-.8Z"/>
  <path class="st0" d="M1.2,18c0-.4.3-.8.8-.8h3c.4,0,.8.3.8.8s-.3.8-.8.8h-3c-.4,0-.8-.3-.8-.8ZM8.2,18c0-.4.3-.8.8-.8h13c.4,0,.8.3.8.8s-.3.8-.8.8h-13c-.4,0-.8-.3-.8-.8Z"/>
  <path class="st0" d="M2.2,12c0-.4.3-.8.8-.8h6.5c.4,0,.8.3.8.8s-.3.8-.8.8H3c-.4,0-.8-.3-.8-.8Z"/>
  <path class="st0" d="M5.5,9c.3.3.3.8,0,1.1l-2,2,2,2.1c.3.3.3.8,0,1.1-.3.3-.8.3-1.1,0l-2.5-2.6c-.3-.3-.3-.8,0-1.1l2.5-2.5c.3-.3.8-.3,1.1,0Z"/>
</svg>