<svg id="support-side-menu" xmlns="http://www.w3.org/2000/svg" width="32" height="32" viewBox="0 0 32 32">
  <rect id="Rectangle_7524" data-name="Rectangle 7524" width="32" height="32" fill="#232929" opacity="0"/>
  <g id="Group_18819" data-name="Group 18819" transform="translate(4 4.177)">
    <path id="Path_67087" data-name="Path 67087" d="M26.139,28.77H23.5a1.809,1.809,0,0,0-1.809,1.809v3.857l-1.247,1.637a.429.429,0,0,1-.771-.257v-1.41a.964.964,0,0,1-1.046-.951V29.271a.956.956,0,0,1,.951-.951h5.751A.947.947,0,0,1,26.139,28.77Z" transform="translate(-12.36 -18.067)" fill="#232929"/>
    <path id="Path_67088" data-name="Path 67088" d="M34.479,31.37H28.731a.956.956,0,0,0-.951.951V36.5a.956.956,0,0,0,.951.951h3.621l1.264,1.659a.429.429,0,0,0,.767-.257v-1.4A.964.964,0,0,0,35.43,36.5V32.321a.951.951,0,0,0-.951-.951Zm-4.714,2.186h2.764a.429.429,0,0,1,0,.857H29.756a.429.429,0,1,1,0-.857Zm4.144,2.237H29.726a.429.429,0,1,1,0-.857H33.9a.429.429,0,1,1,0,.857Z" transform="translate(-17.589 -19.81)" fill="#232929"/>
    <path id="Path_67089" data-name="Path 67089" d="M9.7,27.429V35.2a.429.429,0,0,1-.429.429H7a3,3,0,0,1-3-3V30a3,3,0,0,1,3-3H9.276a.429.429,0,0,1,.429.429Z" transform="translate(-4 -17.313)" fill="#232929"/>
    <path id="Path_67090" data-name="Path 67090" d="M28.789,13.411a12.212,12.212,0,0,0-2.829-.184,7.324,7.324,0,0,0-14.443,0,13.864,13.864,0,0,0-2.837.133,10.119,10.119,0,0,1,20.109.034Z" transform="translate(-6.674 -4.397)" fill="#232929"/>
    <path id="Path_67091" data-name="Path 67091" d="M52.571,30v2.61a3,3,0,0,1-3,3H47.429A.429.429,0,0,1,47,35.181V27.429A.429.429,0,0,1,47.429,27h2.143a3,3,0,0,1,3,3Z" transform="translate(-28.571 -17.313)" fill="#232929"/>
    <path id="Path_67092" data-name="Path 67092" d="M46.844,49.12a3.356,3.356,0,0,1-3.339,3.51H41.86a2.738,2.738,0,0,0,0-.857h1.646a2.486,2.486,0,0,0,2.481-2.481v-.167C46.137,49.133,46.7,49.12,46.844,49.12Z" transform="translate(-25.634 -29.953)" fill="#232929"/>
    <path id="Path_67093" data-name="Path 67093" d="M31.023,54.336a1.329,1.329,0,0,1-1.286,1.509h-4.1c-1.714,0-1.714-2.781,0-2.794h4.1A1.286,1.286,0,0,1,31.023,54.336Z" transform="translate(-15.629 -32.199)" fill="#232929"/>
  </g>
</svg>
