<svg xmlns="http://www.w3.org/2000/svg" width="32" height="32" viewBox="0 0 32 32" style="font-size: 16px !important;">
                  <g id="Group_21954" data-name="Group 21954" transform="translate(-3932 -6005)" style="font-size: 16px !important;">
                    <rect id="Rectangle_8208" data-name="Rectangle 8208" width="32" height="32" transform="translate(3932 6005)" fill="#bd0d44" opacity="0" style="font-size: 16px !important;"></rect>
                    <g id="Requests" transform="translate(3664.257 5260.257)" style="font-size: 16px !important;">
                      <g id="Rectangle_7603" data-name="Rectangle 7603" transform="translate(270.743 747.743)" fill="#bd0d44" stroke="#bd0d44" stroke-width="1" opacity="0" style="font-size: 16px !important;">
                        <rect width="26" height="26" stroke="none" style="font-size: 16px !important;"></rect>
                        <rect x="0.5" y="0.5" width="25" height="25" fill="none" style="font-size: 16px !important;"></rect>
                      </g>
                      <g id="Group_21955" data-name="Group 21955" transform="translate(271 748)" style="font-size: 16px !important;">
                        <path id="Path_68276" data-name="Path 68276" d="M52.791,24.659a.455.455,0,1,0-.862.292,11.807,11.807,0,0,1,.622,3.791v.994a1.349,1.349,0,0,0-.455-.084h-.455a1.367,1.367,0,0,0-1.365-1.365H48.91a.911.911,0,0,0-.91.91v7.281a.911.911,0,0,0,.91.91h1.365a1.367,1.367,0,0,0,1.365-1.365H52.1a1.367,1.367,0,0,0,1.365-1.365V28.742A12.709,12.709,0,0,0,52.791,24.659Zm-2.06,11.364a.456.456,0,0,1-.455.455H48.91V29.2h1.365a.456.456,0,0,1,.455.455Zm1.82-1.365a.456.456,0,0,1-.455.455h-.455V30.562H52.1a.456.456,0,0,1,.455.455Z" transform="translate(-27.976 -15.089)" fill="#6b7280" style="font-size: 16px !important;"></path>
                        <path id="Path_68277" data-name="Path 68277" d="M8.067,12.282a10.943,10.943,0,0,1,18.812-.335,1.375,1.375,0,0,0,1.924.435,1.361,1.361,0,0,0,.41-1.851,13.641,13.641,0,0,0-23.507.38,1.365,1.365,0,1,0,2.361,1.371ZM6.5,11.361a12.768,12.768,0,0,1,21.94-.355.455.455,0,0,1-.138.617.459.459,0,0,1-.644-.154,11.856,11.856,0,0,0-20.38.364.455.455,0,1,1-.778-.473Z" transform="translate(-4.829 -4)" fill="#6b7280" style="font-size: 16px !important;"></path>
                        <path id="Path_68278" data-name="Path 68278" d="M31.32,31.391h-.228V28.205a.455.455,0,0,0-.455-.455h-.683a.455.455,0,0,0,0,.91h.228v2.731h-.228a.455.455,0,0,0,0,.91H31.32a.455.455,0,0,0,0-.91Z" transform="translate(-17.895 -16.942)" fill="#6b7280" style="font-size: 16px !important;"></path>
                        <path id="Path_68279" data-name="Path 68279" d="M25.461,18.5a5.461,5.461,0,1,0,5.461,5.461A5.461,5.461,0,0,0,25.461,18.5Zm0,10.012a4.551,4.551,0,1,1,4.551-4.551A4.551,4.551,0,0,1,25.461,28.512Z" transform="translate(-12.719 -11.901)" fill="#6b7280" style="font-size: 16px !important;"></path>
                        <circle id="Ellipse_630" data-name="Ellipse 630" cx="0.569" cy="0.569" r="0.569" transform="translate(12.174 8.874)" fill="#6b7280" style="font-size: 16px !important;"></circle>
                        <path id="Path_68280" data-name="Path 68280" d="M15.832,37.4a1.818,1.818,0,0,0-1.756,1.365H6.731a1.822,1.822,0,0,1-1.82-1.82v-.539a1.349,1.349,0,0,0,.455.084H5.82a1.367,1.367,0,0,0,1.365,1.365H8.551a.911.911,0,0,0,.91-.91V29.665a.911.911,0,0,0-.91-.91H7.186A1.367,1.367,0,0,0,5.82,30.12H5.365a1.349,1.349,0,0,0-.455.084V29.21a11.727,11.727,0,0,1,.5-3.413.455.455,0,1,0-.871-.264A12.647,12.647,0,0,0,4,29.21v7.737a2.734,2.734,0,0,0,2.731,2.731h7.346A1.817,1.817,0,1,0,15.832,37.4Zm-9.1-7.281a.456.456,0,0,1,.455-.455H8.551v7.281H7.186a.456.456,0,0,1-.455-.455ZM4.91,31.485a.456.456,0,0,1,.455-.455H5.82v4.551H5.365a.456.456,0,0,1-.455-.455Zm10.922,8.647a.91.91,0,1,1,.91-.91A.91.91,0,0,1,15.832,40.132Z" transform="translate(-4 -15.557)" fill="#6b7280" style="font-size: 16px !important;"></path>
                      </g>
                    </g>
                  </g>
                </svg>