<svg id="Group_22184" data-name="Group 22184" xmlns="http://www.w3.org/2000/svg" width="40.145" height="40" viewBox="0 0 40.145 40">
  <g id="Rectangle_8254" data-name="Rectangle 8254" transform="translate(0.145)" fill="#fff" stroke="#707070" stroke-width="1" opacity="0">
    <rect width="40" height="40" stroke="none"/>
    <rect x="0.5" y="0.5" width="39" height="39" fill="none"/>
  </g>
  <g id="cloud_upload" data-name="cloud upload" transform="translate(0 3)">
    <path id="Path_68894" data-name="Path 68894" d="M42.08,20.952a6.844,6.844,0,0,0-4.834-5.741,9.658,9.658,0,0,0-18.911-.229,7.862,7.862,0,0,0-.921-.053,7.781,7.781,0,0,0-7.561,5.964,5.893,5.893,0,0,0,1.915,11.462H16.85a1.186,1.186,0,0,0,0-2.372H11.758a3.522,3.522,0,0,1-.664-6.972,1.186,1.186,0,0,0,.947-1.016,5.409,5.409,0,0,1,6.917-4.466,1.186,1.186,0,0,0,1.538-1.04A7.285,7.285,0,0,1,35,16.307a1.186,1.186,0,0,0,.988,1.051,4.464,4.464,0,0,1,3.755,4.405v.061a1.186,1.186,0,0,0,.949,1.186,3.522,3.522,0,0,1-.7,6.97H34.908a1.186,1.186,0,1,0,0,2.372h5.083a5.891,5.891,0,0,0,2.089-11.4Z" transform="translate(-5.886 -7.402)" fill="#bd0d44" fill-rule="evenodd"/>
    <path id="Path_68895" data-name="Path 68895" d="M19.655,14.6a1.186,1.186,0,0,0-1.676,0l-4.518,4.518A1.186,1.186,0,1,0,15.139,20.8l2.492-2.492V33.511a1.186,1.186,0,1,0,2.372,0V18.306L22.495,20.8a1.186,1.186,0,1,0,1.678-1.676Z" transform="translate(1.171 -0.709)" fill="#bd0d44" fill-rule="evenodd"/>
  </g>
</svg>
