<svg xmlns="http://www.w3.org/2000/svg" width="24" height="24" viewBox="0 0 24 24"><path d="M124.574,119.877h-8.314a.891.891,0,0,0,0,1.781h8.314a.891.891,0,1,0,0-1.781Z" transform="translate(-109.962 -110.296)" fill="#fff"/><path d="M23.609,19.478l-.075-.1-.022-.025a15.176,15.176,0,0,0-2.762-2.325c-.335-.232-1.069-.75-1.491-1.049a10.427,10.427,0,1,0-3.285,3.283c.3.424.821,1.16,1.05,1.49a15.176,15.176,0,0,0,2.327,2.76l.027.023.1.075.029.018A2.533,2.533,0,0,0,20.85,24a2.749,2.749,0,0,0,1.855-.72l.538-.535.04-.042a2.705,2.705,0,0,0,.345-3.2l-.019-.03ZM16.544,16.54A8.647,8.647,0,1,1,4.315,4.313,8.647,8.647,0,1,1,16.544,16.54ZM21.974,21.5l-.482.481a.987.987,0,0,1-.643.243.762.762,0,0,1-.369-.089,13.782,13.782,0,0,1-1.991-2.394c-.249-.361-.8-1.139-1.093-1.551a10.408,10.408,0,0,0,.788-.788c.417.3,1.2.849,1.553,1.093a13.783,13.783,0,0,1,2.4,1.99.918.918,0,0,1-.16,1.014Z" transform="translate(0)" fill="#fff"/></svg>