<svg xmlns="http://www.w3.org/2000/svg" width="32" height="32" viewBox="0 0 32 32">
  <g id="Group_28847" data-name="Group 28847" transform="translate(0 0)">
    <g id="Group_28846" data-name="Group 28846" transform="translate(0 0)">
      <path id="Path_70139" data-name="Path 70139" d="M18.33,1.531,19.621.206a.677.677,0,0,1,1.142.306l.455,1.793a3.251,3.251,0,0,0,4.035,2.33l1.78-.5a.677.677,0,0,1,.836.836l-.5,1.78a3.251,3.251,0,0,0,2.33,4.035l1.793.455A.677.677,0,0,1,31.8,12.38l-1.326,1.29a3.251,3.251,0,0,0,0,4.66l1.326,1.29a.677.677,0,0,1-.306,1.142l-1.793.455a3.251,3.251,0,0,0-2.33,4.035l.5,1.78a.677.677,0,0,1-.836.836l-1.78-.5a3.251,3.251,0,0,0-4.035,2.33l-.455,1.793a.677.677,0,0,1-1.142.306l-1.29-1.326a3.251,3.251,0,0,0-4.66,0l-1.29,1.326a.677.677,0,0,1-1.142-.306L10.784,29.7a3.251,3.251,0,0,0-4.035-2.33l-1.78.5a.677.677,0,0,1-.836-.836l.5-1.78a3.251,3.251,0,0,0-2.33-4.035L.512,20.762A.677.677,0,0,1,.206,19.62l1.326-1.29a3.251,3.251,0,0,0,0-4.66L.206,12.38a.677.677,0,0,1,.306-1.142l1.793-.455a3.251,3.251,0,0,0,2.33-4.035l-.5-1.78a.677.677,0,0,1,.836-.836l1.78.5a3.251,3.251,0,0,0,4.035-2.33L11.238.512A.677.677,0,0,1,12.38.206l1.29,1.326a3.251,3.251,0,0,0,4.66,0Z" transform="translate(0 0)" fill="#ffe177"/>
      <path id="Path_70140" data-name="Path 70140" d="M92.032,75.243l1.325-1.29a.677.677,0,0,0-.306-1.141l-1.792-.454a3.249,3.249,0,0,1-2.328-4.033l.5-1.779a.677.677,0,0,0-.835-.835l-1.779.5a3.265,3.265,0,0,1-.668.116A14.762,14.762,0,0,1,66.328,86.151a3.266,3.266,0,0,1-.116.668l-.5,1.779a.677.677,0,0,0,.835.835l1.779-.5a3.249,3.249,0,0,1,4.033,2.329l.454,1.792a.677.677,0,0,0,1.141.306l1.29-1.325a3.249,3.249,0,0,1,4.657,0l1.29,1.325a.677.677,0,0,0,1.141-.306l.454-1.792a3.249,3.249,0,0,1,4.033-2.329l1.779.5a.677.677,0,0,0,.835-.835l-.5-1.779a3.249,3.249,0,0,1,2.328-4.033l1.792-.454a.677.677,0,0,0,.306-1.141L92.031,79.9a3.25,3.25,0,0,1,0-4.657Z" transform="translate(-61.562 -61.563)" fill="#ffd15b"/>
      <path id="Path_70141" data-name="Path 70141" d="M92.032,75.243l1.325-1.29a.677.677,0,0,0-.306-1.141l-1.792-.454a3.249,3.249,0,0,1-2.328-4.033l.5-1.779a.677.677,0,0,0-.835-.835l-1.779.5a3.265,3.265,0,0,1-.668.116A14.762,14.762,0,0,1,66.328,86.151a3.266,3.266,0,0,1-.116.668l-.5,1.779a.677.677,0,0,0,.835.835l1.779-.5a3.249,3.249,0,0,1,4.033,2.329l.454,1.792a.677.677,0,0,0,1.141.306l1.29-1.325a3.249,3.249,0,0,1,4.657,0l1.29,1.325a.677.677,0,0,0,1.141-.306l.454-1.792a3.249,3.249,0,0,1,4.033-2.329l1.779.5a.677.677,0,0,0,.835-.835l-.5-1.779a3.249,3.249,0,0,1,2.328-4.033l1.792-.454a.677.677,0,0,0,.306-1.141L92.031,79.9a3.25,3.25,0,0,1,0-4.657Z" transform="translate(-61.562 -61.563)" fill="#ffd15b"/>
      <circle id="Ellipse_659" data-name="Ellipse 659" cx="10.817" cy="10.817" r="10.817" transform="translate(5.183 5.183)" fill="#ffc344"/>
      <path id="Path_70142" data-name="Path 70142" d="M132.407,117.178a10.88,10.88,0,0,1-15.229,15.229,10.879,10.879,0,1,0,15.229-15.229Z" transform="translate(-109.898 -109.898)" fill="#feb237"/>
    </g>
  </g>
</svg>
