<svg xmlns="http://www.w3.org/2000/svg" width="32" height="32.026" viewBox="0 0 32 32.026">
  <g id="Group_28850" data-name="Group 28850" transform="translate(-0.023)">
    <path id="Path_70143" data-name="Path 70143" d="M30.389,44.761a14.686,14.686,0,0,1-1.737,3.218,15.142,15.142,0,0,1-1.759,2.1,15.3,15.3,0,0,1-1.525,1.341A15.719,15.719,0,0,1,4.635,50.08a16.316,16.316,0,0,1-1.129-1.254,15.737,15.737,0,0,1,1.129-21,15.563,15.563,0,0,1,5.324-3.5v.005a15.515,15.515,0,0,0-1.1,5.406A15.23,15.23,0,0,0,9.222,33.5a15.608,15.608,0,0,0,3.794,7.284c.141.157.293.315.445.467a15.741,15.741,0,0,0,16.929,3.506Zm0,0" transform="translate(0 -22.67)" fill="#2f3c4f"/>
    <path id="Path_70144" data-name="Path 70144" d="M365.658,146.714h-.619a2.164,2.164,0,0,0-1.552-1.552v-.619a.543.543,0,1,0-1.086,0v.619a2.164,2.164,0,0,0-1.552,1.552h-.619a.543.543,0,1,0,0,1.086h.619a2.164,2.164,0,0,0,1.552,1.552v.619a.543.543,0,1,0,1.086,0v-.619a2.164,2.164,0,0,0,1.552-1.552h.619a.543.543,0,0,0,0-1.086Zm0,0" transform="translate(-335.263 -134.23)" fill="#fbb040"/>
    <path id="Path_70145" data-name="Path 70145" d="M297.859,33.086A1.086,1.086,0,1,1,296.773,32,1.086,1.086,0,0,1,297.859,33.086Zm0,0" transform="translate(-275.606 -29.829)" fill="#fbb040"/>
    <g id="Group_28850-2" data-name="Group 28850" transform="translate(2.714)">
      <path id="Path_70146" data-name="Path 70146" d="M441.316.543a.543.543,0,1,0-1.086,0,.543.543,0,0,0,0,1.086.543.543,0,1,0,1.086,0,.543.543,0,0,0,0-1.086Zm0,0" transform="translate(-412.55)" fill="#506f86"/>
      <path id="Path_70147" data-name="Path 70147" d="M249.607,120.162a.543.543,0,0,0-.768,0l-.159.159-.159-.159a.543.543,0,0,0-.768.767l.159.159-.159.159a.543.543,0,1,0,.768.767l.159-.159.159.159a.543.543,0,0,0,.767-.767l-.159-.159.159-.159A.543.543,0,0,0,249.607,120.162Zm0,0" transform="translate(-233.483 -111.862)" fill="#506f86"/>
      <path id="Path_70148" data-name="Path 70148" d="M42.944,225.667a1.628,1.628,0,1,1-1.628-1.628A1.628,1.628,0,0,1,42.944,225.667Zm0,0" transform="translate(-39.688 -208.839)" fill="#506f86"/>
      <path id="Path_70149" data-name="Path 70149" d="M212.03,378.21a2.171,2.171,0,1,1-2.171-2.171A2.171,2.171,0,0,1,212.03,378.21Zm0,0" transform="translate(-196.29 -350.527)" fill="#506f86"/>
      <path id="Path_70150" data-name="Path 70150" d="M106.46,107.893a1.418,1.418,0,0,1-.266.022,1.9,1.9,0,0,1-.092-3.794,15.228,15.228,0,0,0,.358,3.772Zm0,0" transform="translate(-99.953 -97.057)" fill="#506f86"/>
      <path id="Path_70151" data-name="Path 70151" d="M55.46,378.518a2.4,2.4,0,0,1-.5,1.471,15.666,15.666,0,0,1-2.464-2.014,16.379,16.379,0,0,1-1.129-1.251,2.413,2.413,0,0,1,1.65-.646,2.44,2.44,0,0,1,2.442,2.44Zm0,0" transform="translate(-50.575 -350.563)" fill="#506f86"/>
      <path id="Path_70152" data-name="Path 70152" d="M371.421,368.437a15.14,15.14,0,0,1-1.759,2.1,15.3,15.3,0,0,1-1.525,1.341,2.443,2.443,0,0,1,3.284-3.441Zm0,0" transform="translate(-345.482 -343.125)" fill="#506f86"/>
      <path id="Path_70153" data-name="Path 70153" d="M187.215,269.8a2.171,2.171,0,1,1-3.349-2.757c.141.157.293.315.445.467A15.625,15.625,0,0,0,187.215,269.8Zm0,0" transform="translate(-173.565 -248.922)" fill="#506f86"/>
    </g>
  </g>
</svg>
