<svg xmlns="http://www.w3.org/2000/svg" width="32" height="32" viewBox="0 0 32 32">
  <g id="图层_x0020_1" transform="translate(0 0.001)" opacity="0.5">
    <circle id="Ellipse_641" data-name="Ellipse 641" cx="16" cy="16" r="16" transform="translate(0 -0.001)" fill="#f2cfda"/>
    <path id="Path_69784" data-name="Path 69784" d="M4.618,11.66.742,7.055A1.7,1.7,0,0,1,.81,4.838a1.32,1.32,0,0,1,2,.075L5.8,8.466l4.732-4.908a1.461,1.461,0,0,1,.133-.122l2.225-2.308a1.32,1.32,0,0,1,2,.075,1.7,1.7,0,0,1-.068,2.217l-6.8,7.05-.007-.009L5.661,12.9,4.618,11.66Z" transform="translate(8.637 9.293)" fill="#fff" fill-rule="evenodd"/>
  </g>
</svg>