<svg xmlns="http://www.w3.org/2000/svg" width="24" height="24" viewBox="0 0 24 24">
  <g id="图层_x0020_1" transform="translate(0 0)">
    <circle id="Ellipse_641" data-name="Ellipse 641" cx="12" cy="12" r="12" transform="translate(0 0)" fill="#bd0d44"/>
    <path id="Path_69784" data-name="Path 69784" d="M3.691,8.538.66,5.246A1.136,1.136,0,0,1,.713,3.661a1.1,1.1,0,0,1,1.562.054L4.612,6.254l3.7-3.509a1.112,1.112,0,0,1,.1-.087l1.74-1.65a1.1,1.1,0,0,1,1.562.054,1.137,1.137,0,0,1-.053,1.585L6.351,7.686,6.345,7.68,4.507,9.424l-.816-.886Z" transform="translate(6.071 6.943)" fill="#fff" fill-rule="evenodd"/>
  </g>
</svg>

