<svg xmlns="http://www.w3.org/2000/svg" width="40" height="40" viewBox="0 0 40 40"><g transform="translate(-33 -387)"><path d="M20,1.5A18.5,18.5,0,0,0,6.919,33.081,18.5,18.5,0,0,0,33.081,6.919,18.379,18.379,0,0,0,20,1.5M20,0A20,20,0,1,1,0,20,20,20,0,0,1,20,0Z" transform="translate(33 387)" fill="#fff"/><path d="M14.054,18.429,9.345,13.719a1.177,1.177,0,0,1,0-1.665l4.709-4.709A1.177,1.177,0,0,1,15.719,9.01l-3.877,3.877,3.877,3.877a1.177,1.177,0,0,1-1.665,1.665Z" transform="translate(40 394)" fill="#fff" fill-rule="evenodd"/></g></svg>