<svg xmlns="http://www.w3.org/2000/svg" width="20" height="19.516" viewBox="0 0 20 19.516"><path d="M8.706,6.2a.586.586,0,0,0-.373.134l-8.12,6.7a.586.586,0,0,0,0,.908l8.12,6.553a.586.586,0,0,0,.954-.456V16.482a9.824,9.824,0,0,1,9.54,8.717A.586.586,0,0,0,20,25.133V21.7A11.3,11.3,0,0,0,9.292,10.434V6.79A.586.586,0,0,0,8.706,6.2ZM1.513,13.48,8.12,8.032v2.973a.586.586,0,0,0,.586.586,10.131,10.131,0,0,1,10.11,9.615,11.005,11.005,0,0,0-9.665-5.9l-.441,0a.586.586,0,0,0-.59.586v2.922Z" transform="translate(0 -6.204)" fill="#bd0d44"/></svg>