<svg xmlns="http://www.w3.org/2000/svg" width="72" height="73.065" viewBox="0 0 72 73.065"><path d="M74.916,23.714a3.994,3.994,0,1,0,3.994-3.993A3.994,3.994,0,0,0,74.916,23.714Zm-41.626,15L35.4,44.066a.149.149,0,0,0,.132.1l5.736.35a.152.152,0,0,1,.088.269l-4.435,3.655a.149.149,0,0,0-.051.156l1.44,5.564a.152.152,0,0,1-.229.167L33.23,51.234a.149.149,0,0,0-.163,0l-4.847,3.088a.152.152,0,0,1-.229-.167l1.44-5.564a.149.149,0,0,0-.051-.156l-4.435-3.655a.152.152,0,0,1,.088-.269l5.736-.35a.149.149,0,0,0,.132-.1l2.106-5.347A.152.152,0,0,1,33.289,38.718Zm22.88,0,2.106,5.347a.149.149,0,0,0,.132.1l5.736.35a.152.152,0,0,1,.088.269L59.8,48.437a.149.149,0,0,0-.051.156l1.44,5.564a.152.152,0,0,1-.229.167l-4.847-3.088a.149.149,0,0,0-.163,0L51.1,54.323a.152.152,0,0,1-.229-.167l1.44-5.564a.149.149,0,0,0-.051-.156l-4.435-3.655a.152.152,0,0,1,.088-.269l5.736-.35a.149.149,0,0,0,.132-.1l2.106-5.347A.152.152,0,0,1,56.169,38.718Zm22.88,0,2.106,5.347a.149.149,0,0,0,.132.1l5.736.35a.152.152,0,0,1,.088.269l-4.435,3.655a.149.149,0,0,0-.051.156l1.44,5.564a.152.152,0,0,1-.229.167l-4.847-3.088a.149.149,0,0,0-.163,0l-4.847,3.088a.152.152,0,0,1-.229-.167l1.44-5.564a.149.149,0,0,0-.051-.156L70.7,44.781a.152.152,0,0,1,.088-.269l5.736-.35a.149.149,0,0,0,.132-.1l2.106-5.347a.152.152,0,0,1,.283,0Zm-42.1,47.9-5.144,2.257a2.218,2.218,0,0,1-2.916-1.136l-9.2-20.917a2.2,2.2,0,0,1,1.137-2.919l5.144-2.257a2.218,2.218,0,0,1,2.916,1.136l9.2,20.917A2.2,2.2,0,0,1,36.951,86.623ZM69.329,68.744a5.679,5.679,0,0,1-6.86,4.02L49.4,69.273a1.064,1.064,0,1,1,.55-2.056l13.005,3.474a3.528,3.528,0,1,0,1.821-6.816L54.989,61.26a1.064,1.064,0,0,1-.337-.162c-3.125-2.212-5.44-3.013-7.56-2.957s-4.2.99-6.739,2.234q-4.2,2.055-8.42,4.042l6.334,14.4,3.558-1.733a7.163,7.163,0,0,1,5.307-.453l10.793,3.125c2.84.822,6.552-.625,9.5-1.773l20.908-8.075a5.254,5.254,0,0,0,3.1-3.873,3.019,3.019,0,0,0-.988-3.1c-1.228-.936-3.565-1.212-7.4-.083L69.5,66.835a5.389,5.389,0,0,1-.173,1.908ZM41.79,38.649a8.641,8.641,0,0,0-17.282,0c0,1.675,2.129,2.761,4.892,3.26a.775.775,0,0,0,.157-.249l2.882-7.319a.761.761,0,0,1,1.416,0l2.882,7.319a.774.774,0,0,0,.157.249C39.659,41.411,41.79,40.324,41.79,38.649ZM29.156,23.714a3.994,3.994,0,1,0,3.994-3.993,3.994,3.994,0,0,0-3.994,3.993ZM66.1,38.058a10.069,10.069,0,0,0-20.138,0c0,2.066,2.781,3.364,6.276,3.895a.767.767,0,0,0,.2-.292l2.882-7.319a.761.761,0,0,1,1.416,0l2.882,7.319a.767.767,0,0,0,.2.293c3.5-.53,6.279-1.828,6.279-3.9Zm-14.723-17.4A4.654,4.654,0,1,0,56.03,16,4.654,4.654,0,0,0,51.376,20.653Zm36.174,18a8.641,8.641,0,0,0-17.282,0c0,1.675,2.129,2.761,4.892,3.26a.775.775,0,0,0,.157-.249L78.2,34.341a.761.761,0,0,1,1.416,0L82.5,41.66a.774.774,0,0,0,.157.249C85.419,41.411,87.55,40.324,87.55,38.649Z" transform="translate(-19.5 -16)" fill="#bd0d44" fill-rule="evenodd"/></svg>