<svg xmlns="http://www.w3.org/2000/svg" width="24" height="24" viewBox="0 0 24 24"><g transform="translate(-147 -1433)"><rect width="24" height="24" transform="translate(147 1433)" fill="#6b7280" opacity="0"/><g transform="translate(147.25 1433.888)"><g transform="translate(1.75 3.25)"><path d="M11.75,11.526a1.886,1.886,0,0,1-.906-.233L1.51,6.189a.5.5,0,0,1,.48-.877l9.334,5.1a.885.885,0,0,0,.853,0l9.334-5.1a.5.5,0,0,1,.48.877l-9.334,5.1A1.887,1.887,0,0,1,11.75,11.526Z" transform="translate(-1.75 -2.332)" fill="#bd0d44"/><path d="M2-.5H18A2.5,2.5,0,0,1,20.5,2V13.724a2.5,2.5,0,0,1-2.5,2.5H2a2.5,2.5,0,0,1-2.5-2.5V2A2.5,2.5,0,0,1,2-.5ZM18,15.224a1.5,1.5,0,0,0,1.5-1.5V2A1.5,1.5,0,0,0,18,.5H2A1.5,1.5,0,0,0,.5,2V13.724a1.5,1.5,0,0,0,1.5,1.5Z" transform="translate(20 15.724) rotate(180)" fill="#bd0d44"/></g></g></g></svg>