<svg xmlns="http://www.w3.org/2000/svg" width="72" height="72" viewBox="0 0 72 72"><g transform="translate(0 -0.001)"><path d="M71.479,30.406A2.11,2.11,0,0,0,68.3,27.63c-.16.183-.553.321-.717.5.006-.224.055-.439.055-.664,0-.9-.1-1.782-.186-2.665a26.914,26.914,0,0,0,2.88-5.521,2.109,2.109,0,1,0-3.947-1.487c-.088.231-.218.433-.312.661a27.057,27.057,0,0,0-1.3-3.132,27.183,27.183,0,0,0,.729-6.138,2.109,2.109,0,0,0-4.219.021c0,.2-.045.411-.05.615a27.234,27.234,0,0,0-2.321-2.4,28.165,28.165,0,0,0-1.467-6.048,2.11,2.11,0,0,0-3.943,1.5c.086.226.126.564.2.8-.5-.282-.965-.6-1.486-.858a2.109,2.109,0,0,0-1.85,3.79c.368.179.695.41,1.049.606-.3.079-.645.1-.94.2a2.109,2.109,0,0,0,.626,4.124,31.461,31.461,0,0,1,5.1-.848,22.993,22.993,0,0,1,1.739,1.8c-.347-.038-.713-.144-1.054-.164a2.081,2.081,0,0,0-2.229,1.982,2.109,2.109,0,0,0,1.982,2.229,19.373,19.373,0,0,1,4.456.865,22.933,22.933,0,0,1,.915,2.246c-.285-.143-.55-.344-.839-.474a2.11,2.11,0,0,0-1.73,3.848,19.109,19.109,0,0,1,3.821,2.356c.062.7.147,1.389.147,2.1,0,.131-.03.257-.032.388-.228-.246-.414-.54-.652-.775a2.111,2.111,0,1,0-2.962,3.008A18.588,18.588,0,0,1,62.514,33.6a23.049,23.049,0,0,1-.768,2.307c-.115-.282-.179-.6-.305-.872A2.109,2.109,0,1,0,57.609,36.8a19.051,19.051,0,0,1,1.321,4.3,23.483,23.483,0,0,1-1.541,1.827c-.007-.291.041-.6.022-.885a2.086,2.086,0,0,0-2.243-1.967A2.11,2.11,0,0,0,53.2,42.321a20,20,0,0,1-.279,4.5,22.864,22.864,0,0,1-5.851,2.785,66.064,66.064,0,0,0-11.087-1.051,65.862,65.862,0,0,0-11.058,1.05,22.864,22.864,0,0,1-5.848-2.784,20,20,0,0,1-.279-4.5,2.11,2.11,0,1,0-4.21-.276c-.019.288.03.594.022.885A23.482,23.482,0,0,1,13.071,41.1a19.058,19.058,0,0,1,1.321-4.3,2.109,2.109,0,0,0-3.832-1.763c-.126.274-.19.59-.305.872A23.083,23.083,0,0,1,9.486,33.6a18.587,18.587,0,0,1,2.738-3.519,2.111,2.111,0,0,0-2.962-3.008c-.238.234-.424.528-.652.775,0-.131-.031-.256-.031-.387,0-.711.085-1.4.147-2.1a19.109,19.109,0,0,1,3.821-2.356,2.11,2.11,0,1,0-1.73-3.848c-.289.13-.554.331-.839.474a22.866,22.866,0,0,1,.915-2.246,19.359,19.359,0,0,1,4.456-.865,2.109,2.109,0,1,0-.247-4.211c-.341.02-.707.126-1.054.164a23.017,23.017,0,0,1,1.739-1.8,31.458,31.458,0,0,1,5.1.848A2.109,2.109,0,0,0,21.511,7.4c-.3-.092-.637-.116-.94-.2.355-.2.682-.427,1.049-.606a2.109,2.109,0,1,0-1.85-3.79c-.521.254-.987.576-1.486.858.079-.231.118-.57.2-.8a2.11,2.11,0,1,0-3.943-1.5,28.158,28.158,0,0,0-1.467,6.048,27.275,27.275,0,0,0-2.321,2.4c0-.2-.05-.412-.049-.615a2.109,2.109,0,0,0-2.1-2.12H8.6a2.11,2.11,0,0,0-2.109,2.1,27.183,27.183,0,0,0,.729,6.138,27.077,27.077,0,0,0-1.3,3.132c-.094-.227-.224-.429-.312-.661a2.109,2.109,0,1,0-3.947,1.487A26.918,26.918,0,0,0,4.546,24.8c-.084.884-.186,1.763-.186,2.665,0,.225.049.44.055.664-.164-.177-.556-.314-.717-.5A2.11,2.11,0,1,0,.522,30.406,27.73,27.73,0,0,0,5.4,34.6a27.286,27.286,0,0,0,1.08,3.176c-.241-.118-.5-.193-.736-.32a2.109,2.109,0,1,0-1.994,3.716,26.689,26.689,0,0,0,5.817,2.256,27.776,27.776,0,0,0,2.17,2.6c-.272-.025-.544,0-.814-.04a2.11,2.11,0,1,0-.536,4.186,25.113,25.113,0,0,0,6.2.065c.516.347,1.072.634,1.613.946A68.911,68.911,0,0,0,4.137,57a2.11,2.11,0,0,0,.157,3.774,52.546,52.546,0,0,1,5.374,2.8,52.267,52.267,0,0,0-.433,6.305,2.111,2.111,0,0,0,3.131,1.852,50.1,50.1,0,0,1,23.625-6.305,50.115,50.115,0,0,1,23.642,6.305,2.111,2.111,0,0,0,3.131-1.852,52.265,52.265,0,0,0-.433-6.305,52.547,52.547,0,0,1,5.374-2.8A2.11,2.11,0,0,0,67.864,57,68.869,68.869,0,0,0,53.8,51.182c.541-.312,1.1-.6,1.615-.947a24.9,24.9,0,0,0,6.2-.065,2.11,2.11,0,0,0-.536-4.186c-.27.035-.543.014-.814.04a27.778,27.778,0,0,0,2.17-2.6,26.691,26.691,0,0,0,5.817-2.256,2.109,2.109,0,0,0-1.994-3.716c-.238.127-.495.2-.736.32a27.289,27.289,0,0,0,1.08-3.176,27.718,27.718,0,0,0,4.881-4.189Z" transform="translate(0)" fill="#bd0d44"/><path d="M153.109,128.725a2.108,2.108,0,0,0,2.109-2.109,2.109,2.109,0,0,1,4.219,0c0,2.011-1.219,3.024-3.374,4.641-2.256,1.691-5.063,3.8-5.063,8.015a2.108,2.108,0,0,0,2.109,2.109h8.438a2.109,2.109,0,1,0,0-4.219h-5.658a11.382,11.382,0,0,1,2.7-2.532c2.256-1.691,5.063-3.8,5.063-8.015a6.328,6.328,0,0,0-12.656,0A2.108,2.108,0,0,0,153.109,128.725Z" transform="translate(-129.765 -103.371)" fill="#bd0d44"/><path d="M277.328,137.162H273.11a2.109,2.109,0,1,0,0,4.219h4.219a6.328,6.328,0,0,0,0-12.656h-2.109v-4.219h6.328a2.109,2.109,0,1,0,0-4.219H273.11A2.108,2.108,0,0,0,271,122.4v8.438a2.108,2.108,0,0,0,2.11,2.109h4.219a2.109,2.109,0,0,1,0,4.219Z" transform="translate(-232.89 -103.371)" fill="#bd0d44"/></g></svg>