<svg xmlns="http://www.w3.org/2000/svg" xmlns:xlink="http://www.w3.org/1999/xlink" width="48" height="48" viewBox="0 0 48 48"><defs><clipPath id="a"><path d="M0-682.665H44.914v44.914H0Z" transform="translate(0 682.665)" fill="#f89728"/></clipPath></defs><g transform="translate(0 0.334)"><g opacity="0"><rect width="48" height="48" transform="translate(0 -0.334)" fill="#bd0d44"/><path d="M1,1V47H47V1H1M0,0H48V48H0Z" transform="translate(0 -0.334)" fill="#707070"/></g><g transform="translate(1.543 1.209)"><g transform="translate(0 0)"><g transform="translate(0 0)" clip-path="url(#a)"><g transform="translate(5.945 2.503)"><path d="M-278.151-577.985h-19.589a.575.575,0,0,1-.575-.575v-32.63a2.7,2.7,0,0,1,1.843-2.564l18.137-6.1a.576.576,0,0,1,.519.078.575.575,0,0,1,.239.467v40.745A.575.575,0,0,1-278.151-577.985Zm-19.014-1.15h18.439v-39.37l-17.379,5.842a1.553,1.553,0,0,0-1.059,1.474Z" transform="translate(297.739 619.305)" fill="#bd0d44"/></g><g transform="translate(25.533 21.141)"><path d="M-156.548-251.118h-11.025a.575.575,0,0,1-.575-.575V-273.8a.575.575,0,0,1,.575-.575h12.164a2.036,2.036,0,0,1,2.034,2.034v11.7a.575.575,0,0,1-.575.575.575.575,0,0,1-.575-.575v-11.7a.885.885,0,0,0-.884-.884H-167v20.957h9.875v-3.518a.575.575,0,0,1,.575-.575.575.575,0,0,1,.575.575v4.093A.575.575,0,0,1-156.548-251.118Z" transform="translate(167.573 273.799)" fill="#bd0d44"/></g><g transform="translate(25.533 39.155)"><path d="M17.733-57.543H0a.575.575,0,0,1-.575-.575v-4.093A.575.575,0,0,1,0-62.786H18.722a.575.575,0,0,1,.575.575v3.1A1.566,1.566,0,0,1,17.733-57.543ZM.575-58.693H17.733a.415.415,0,0,0,.414-.414v-2.529H.575Z" transform="translate(0 62.211)" fill="#bd0d44"/></g><g transform="translate(36.558 34.144)"><path d="M-52.014-.575h.371A4.243,4.243,0,0,1-47.4,3.663V5.011a.575.575,0,0,1-.575.575h-7.7a.575.575,0,0,1-.575-.575V3.663A4.243,4.243,0,0,1-52.014-.575Zm3.459,5.011V3.663A3.092,3.092,0,0,0-51.643.575h-.371A3.092,3.092,0,0,0-55.1,3.663v.773Z" transform="translate(55.677)" fill="#bd0d44"/></g><g transform="translate(0.658 39.155)"><path d="M-9.748-57.543h-4.3a1.566,1.566,0,0,1-1.564-1.564v-3.1a.575.575,0,0,1,.575-.575h5.287a.575.575,0,0,1,.575.575v4.093A.575.575,0,0,1-9.748-57.543Zm-4.712-4.093v2.529a.415.415,0,0,0,.414.414h3.722v-2.943Z" transform="translate(15.035 62.211)" fill="#bd0d44"/></g><g transform="translate(0.658 34.144)"><path d="M-67.724-.575h.517A.575.575,0,0,1-66.631,0V5.011a.575.575,0,0,1-.575.575h-5.287a.575.575,0,0,1-.575-.575V4.769A5.35,5.35,0,0,1-67.724-.575Zm-.058,5.011V.575a4.2,4.2,0,0,0-4.124,3.861Z" transform="translate(72.493)" fill="#bd0d44"/></g><g transform="translate(25.533 2.503)"><path d="M-96.724-264.074h-6.812a.575.575,0,0,1-.575-.575v-18.638a.575.575,0,0,1,.35-.529.575.575,0,0,1,.624.116l6.162,5.957a2.719,2.719,0,0,1,.825,1.945v8.049a.575.575,0,0,1-.575.575.575.575,0,0,1-.575-.575V-275.8a1.563,1.563,0,0,0-.474-1.118l-5.188-5.014v16.707h6.237a.575.575,0,0,1,.575.575A.575.575,0,0,1-96.724-264.074Z" transform="translate(103.536 283.287)" fill="#bd0d44"/></g><g transform="translate(10.736 1.666)"><path d="M0-81.934a.575.575,0,0,1-.575-.575v-4.443a1.945,1.945,0,0,1,1.943-1.943h.139A1.945,1.945,0,0,1,3.45-86.952v3.476a.575.575,0,0,1-.575.575.575.575,0,0,1-.575-.575v-3.476a.793.793,0,0,0-.793-.793H1.368a.794.794,0,0,0-.793.793v4.443A.575.575,0,0,1,0-81.934Z" transform="translate(0 88.32)" fill="#bd0d44"/></g><g transform="translate(10.736 7.476)"><path d="M-224.906,5.549a.575.575,0,0,1-.545-.392.575.575,0,0,1,.362-.728l14.8-4.974a.575.575,0,0,1,.728.362.575.575,0,0,1-.362.728l-14.8,4.974A.574.574,0,0,1-224.906,5.549Z" transform="translate(224.906)" fill="#bd0d44"/></g><g transform="translate(10.736 12.211)"><path d="M-224.906,5.549a.575.575,0,0,1-.545-.392.575.575,0,0,1,.362-.728l14.8-4.974a.575.575,0,0,1,.728.362.575.575,0,0,1-.362.728l-14.8,4.974A.574.574,0,0,1-224.906,5.549Z" transform="translate(224.906)" fill="#bd0d44"/></g><g transform="translate(10.736 16.946)"><path d="M-224.906,5.549a.575.575,0,0,1-.545-.392.575.575,0,0,1,.362-.728l14.8-4.974a.575.575,0,0,1,.728.362.575.575,0,0,1-.362.728l-14.8,4.974A.574.574,0,0,1-224.906,5.549Z" transform="translate(224.906)" fill="#bd0d44"/></g><g transform="translate(10.736 21.681)"><path d="M-224.906,5.549a.575.575,0,0,1-.545-.392.575.575,0,0,1,.362-.728l14.8-4.974a.575.575,0,0,1,.728.362.575.575,0,0,1-.362.728l-14.8,4.974A.574.574,0,0,1-224.906,5.549Z" transform="translate(224.906)" fill="#bd0d44"/></g><g transform="translate(10.736 30.569)"><path d="M-37.128,1.4A.575.575,0,0,1-37.673,1a.575.575,0,0,1,.362-.728l2.443-.821a.575.575,0,0,1,.728.362A.575.575,0,0,1-34.5.545l-2.443.821A.574.574,0,0,1-37.128,1.4Z" transform="translate(37.128)" fill="#bd0d44"/></g><g transform="translate(16.125 26.417)"><path d="M-143,3.738a.575.575,0,0,1-.545-.392.575.575,0,0,1,.362-.728l9.408-3.162a.575.575,0,0,1,.728.362.575.575,0,0,1-.362.728l-9.408,3.162A.574.574,0,0,1-143,3.738Z" transform="translate(142.996)" fill="#bd0d44"/></g><g transform="translate(10.736 34.99)"><path d="M-110.717-116.676h-7.8a.575.575,0,0,1-.575-.575v-5.589a1.546,1.546,0,0,1,1.126-1.484l6.124-1.71a1.343,1.343,0,0,1,.361-.05,1.339,1.339,0,0,1,1.336,1.338v7.494A.575.575,0,0,1-110.717-116.676Zm-7.222-1.15h6.647v-6.919a.187.187,0,0,0-.186-.188.193.193,0,0,0-.052.007l-6.124,1.71a.392.392,0,0,0-.286.376Z" transform="translate(118.514 125.508)" fill="#bd0d44"/></g><g transform="translate(28.621 24.08)"><path d="M-98.028-34.738h-6.452a1.028,1.028,0,0,1-1.027-1.027v-1.584a1.028,1.028,0,0,1,1.027-1.027h6.452A1.028,1.028,0,0,1-97-37.348v1.584A1.028,1.028,0,0,1-98.028-34.738Zm-6.329-1.15h6.205v-1.337h-6.205Z" transform="translate(104.932 37.8)" fill="#bd0d44"/></g><g transform="translate(28.621 29.083)"><path d="M-98.028-34.738h-6.452a1.028,1.028,0,0,1-1.027-1.027v-1.584a1.028,1.028,0,0,1,1.027-1.027h6.452A1.028,1.028,0,0,1-97-37.348v1.584A1.028,1.028,0,0,1-98.028-34.738Zm-6.329-1.15h6.205v-1.337h-6.205Z" transform="translate(104.932 37.8)" fill="#bd0d44"/></g><g transform="translate(28.621 34.137)"><path d="M-36.716-34.738H-38.85a1.028,1.028,0,0,1-1.027-1.027v-1.584a1.028,1.028,0,0,1,1.027-1.027h2.134a1.028,1.028,0,0,1,1.027,1.027v1.584A1.028,1.028,0,0,1-36.716-34.738Zm-2.011-1.15h1.887v-1.337h-1.887Z" transform="translate(39.301 37.8)" fill="#bd0d44"/></g><g transform="translate(14.635 35.837)"><path d="M0,7.986a.575.575,0,0,1-.575-.575V0A.575.575,0,0,1,0-.575.575.575,0,0,1,.575,0V7.411A.575.575,0,0,1,0,7.986Z" fill="#bd0d44"/></g></g></g></g></g></svg>