<svg xmlns="http://www.w3.org/2000/svg" width="48" height="48" viewBox="0 0 48 48"><g transform="translate(0 0.334)"><g opacity="0"><rect width="48" height="48" transform="translate(0 -0.334)" fill="#bd0d44"/><path d="M1,1V47H47V1H1M0,0H48V48H0Z" transform="translate(0 -0.334)" fill="#707070"/></g><g transform="translate(-61.502 -3.483)"><path d="M4.7,44.3A4.7,4.7,0,0,1,0,39.6V4.7A4.7,4.7,0,0,1,4.7,0H23.025A.53.53,0,0,1,23.4.154L32.849,9.6A.529.529,0,0,1,33,9.979V39.6a4.7,4.7,0,0,1-4.7,4.7ZM1.059,39.6A3.642,3.642,0,0,0,4.7,43.24h23.61A3.642,3.642,0,0,0,31.944,39.6V10.589H27.111a4.7,4.7,0,0,1-4.7-4.7V1.059H4.7A3.642,3.642,0,0,0,1.059,4.7V39.6ZM23.473,5.893A3.642,3.642,0,0,0,27.111,9.53h4.165l-7.8-7.8ZM12.929,39.414a.529.529,0,1,1,0-1.059H28.8a.529.529,0,1,1,0,1.059Zm-8.726,0a.529.529,0,0,1,0-1.059H9.321a.529.529,0,1,1,0,1.059ZM12.929,35a.529.529,0,1,1,0-1.059H28.8A.529.529,0,1,1,28.8,35ZM4.2,35a.529.529,0,0,1,0-1.059H9.321a.529.529,0,1,1,0,1.059Zm8.726-4.412a.529.529,0,1,1,0-1.059H28.8a.529.529,0,1,1,0,1.059Zm-8.726,0a.529.529,0,0,1,0-1.059H9.321a.529.529,0,1,1,0,1.059Zm8.239-3.83H6.2a2.526,2.526,0,1,1,0-5.052H7.91a3.858,3.858,0,1,1,2.814,0h1.719a2.526,2.526,0,1,1,0,5.052ZM4.767,24.234A1.468,1.468,0,0,0,6.2,25.7h6.244a1.467,1.467,0,0,0,0-2.934H6.2A1.468,1.468,0,0,0,4.767,24.234Zm1.753-6.12a2.8,2.8,0,1,0,2.8-2.8v0h0A2.8,2.8,0,0,0,6.52,18.114Zm10.81,8.063a.53.53,0,0,1,0-1.059H28.8a.53.53,0,0,1,0,1.059Zm0-4.413a.53.53,0,0,1,0-1.059H27.415a.53.53,0,0,1,0,1.059Zm0-4.412a.53.53,0,0,1,0-1.059h4.455a.53.53,0,0,1,0,1.059ZM9.49,7.8C9.49,5.76,10.872,4.1,12.57,4.1A2.892,2.892,0,0,1,14.9,5.377a.529.529,0,1,1-.86.618,1.848,1.848,0,0,0-1.472-.838c-1.115,0-2.022,1.187-2.022,2.648s.906,2.647,2.022,2.647a1.854,1.854,0,0,0,1.472-.836.529.529,0,1,1,.86.618,2.889,2.889,0,0,1-2.331,1.278C10.872,11.511,9.49,9.849,9.49,7.8Zm7.938,3.25L15.154,4.809a.529.529,0,1,1,.994-.363l1.919,5.276,1.921-5.276a.53.53,0,0,1,1,.363l-2.273,6.246a.683.683,0,0,1-1.284,0Z" transform="translate(69 5)" fill="#bd0d44"/></g></g></svg>