<svg xmlns="http://www.w3.org/2000/svg" width="174.082" height="54.555" viewBox="0 0 174.082 54.555"><g transform="translate(29.349)"><g transform="translate(112.129 0)"><g transform="translate(23.164 5.52)"><path d="M63.781,11.21a4.72,4.72,0,1,1-4.72-4.72,4.723,4.723,0,0,1,4.72,4.72" transform="translate(-54.34 -6.49)" fill="#72c4c7"/><path d="M57.394,12.883a4.5,4.5,0,0,0-3.044,4.282V22.5l1.625,2.528a.648.648,0,0,1-.542,1.006H54.35V44.223l6.371-2.193a4.5,4.5,0,0,0,3.044-4.282V10.69l-6.371,2.193Z" transform="translate(-54.324 0.144)" fill="#72c4c7"/></g><g transform="translate(11.582)"><path d="M59.291,9.07a4.72,4.72,0,1,1-4.72-4.72,4.723,4.723,0,0,1,4.72,4.72" transform="translate(-49.85 -4.35)" fill="#bd0d44"/><path d="M59.275,25.7V8.6L52.9,10.793a4.5,4.5,0,0,0-3.044,4.282v10.6l1.728,2.631a.648.648,0,0,1-.542,1.006H49.886v22.88L56.257,50A4.5,4.5,0,0,0,59.3,45.718V29.313H58.192a.648.648,0,0,1-.542-1.006l1.677-2.631Z" transform="translate(-49.834 2.363)" fill="#bd0d44"/></g><g transform="translate(0 5.52)"><path d="M54.8,11.21a4.72,4.72,0,1,1-4.72-4.72,4.723,4.723,0,0,1,4.72,4.72" transform="translate(-45.36 -6.49)" fill="#e7695e"/><path d="M53.753,26.028a.648.648,0,0,1-.542-1.006l1.573-2.5V17.154a4.562,4.562,0,0,0-3.044-4.282L45.37,10.68V37.713a4.562,4.562,0,0,0,3.044,4.282l6.371,2.193V26H53.753Z" transform="translate(-45.344 0.128)" fill="#e7695e"/></g></g><g transform="translate(-29.349 9.01)"><path d="M3.809,20.48v.145A6.577,6.577,0,0,0,3.7,21.783a2.886,2.886,0,0,0,.978,2.39,4.545,4.545,0,0,0,2.969.8H9.168a5.009,5.009,0,0,0,2.209-.4,1.253,1.253,0,0,0,.724-1.123,1.149,1.149,0,0,0-.217-.724,1.654,1.654,0,0,0-.579-.4c-.253-.072-.579-.181-1.05-.29q-.652-.163-1.195-.326a6.1,6.1,0,0,1-1.014-.435A3.6,3.6,0,0,1,6.67,20.009,3.131,3.131,0,0,1,6.2,18.271a3.212,3.212,0,0,1,.579-1.883,3.729,3.729,0,0,1,1.666-1.267,6.389,6.389,0,0,1,2.39-.471,8.829,8.829,0,0,1,2.788.471c.29.109.435.29.435.507a.616.616,0,0,1-.036.253l-.181.507c-.109.29-.253.4-.507.4a.616.616,0,0,1-.253-.036,7.569,7.569,0,0,0-2.281-.4,3.6,3.6,0,0,0-1.992.507,1.545,1.545,0,0,0-.76,1.34,1.377,1.377,0,0,0,.217.8,1.813,1.813,0,0,0,.8.579,11.929,11.929,0,0,0,1.774.616,10.877,10.877,0,0,1,1.557.579,3.13,3.13,0,0,1,1.123.941,2.887,2.887,0,0,1,.471,1.629,2.791,2.791,0,0,1-1.267,2.426,6.192,6.192,0,0,1-3.549.869H7.647a8.311,8.311,0,0,1-2.933-.471A4.42,4.42,0,0,1,2.65,24.644a4.241,4.241,0,0,1-.76-2.571,7.142,7.142,0,0,1,.217-1.738c.072-.362.29-.507.688-.507h.471c.362,0,.579.181.579.507M6.09,28.192h.8a.507.507,0,0,1,.579.543v.8s-.036.326-.145.4a.577.577,0,0,1-.435.145h-.8a.577.577,0,0,1-.435-.145.5.5,0,0,1-.145-.4v-.8c0-.362.181-.543.579-.543m2.752,0h.8a.507.507,0,0,1,.579.543v.8s-.036.326-.145.4a.577.577,0,0,1-.435.145h-.8a.577.577,0,0,1-.435-.145.5.5,0,0,1-.145-.4v-.8c0-.362.181-.543.579-.543" transform="translate(-1.89 -8.712)" fill="#575756"/><path d="M14.965,21.125v1.81H6.456a.554.554,0,0,1-.616-.616v-.579a.554.554,0,0,1,.616-.616h5.178V19.46a2.594,2.594,0,0,0-.905-2.281,5.225,5.225,0,0,0-2.969-.652H7.325a.554.554,0,0,1-.616-.616V15.3a.554.554,0,0,1,.616-.616H7.8A6.589,6.589,0,0,1,12,15.875a4.253,4.253,0,0,1,1.521,3.549v1.738h1.521Z" transform="translate(8.463 -8.633)" fill="#575756"/><path d="M11.266,19.75V15.586a.554.554,0,0,1,.616-.616H12.5a.554.554,0,0,1,.616.616V19.75a5.07,5.07,0,0,1-.181,1.521,1.063,1.063,0,0,1-.724.688,4.432,4.432,0,0,1-1.593.181H9.094a1.044,1.044,0,0,1-.724-.253.878.878,0,0,1,0-1.3,1.166,1.166,0,0,1,.724-.253h1.521a.554.554,0,0,0,.616-.616M10,23.7h.8a.507.507,0,0,1,.579.543v.8s-.036.326-.145.4a.577.577,0,0,1-.435.145H10a.577.577,0,0,1-.435-.145.5.5,0,0,1-.145-.4v-.8c0-.362.181-.543.579-.543m2.752,0h.8a.507.507,0,0,1,.579.543v.8s-.036.326-.145.4a.577.577,0,0,1-.435.145h-.8a.577.577,0,0,1-.435-.145.5.5,0,0,1-.145-.4v-.8c0-.362.181-.543.579-.543" transform="translate(14.334 -7.873)" fill="#575756"/><path d="M19.812,16.631v8.22a5.07,5.07,0,0,1-.181,1.521,1.14,1.14,0,0,1-.724.688,4.329,4.329,0,0,1-1.557.181H10.8a.554.554,0,0,1-.616-.616v-.579a.554.554,0,0,1,.616-.616h2.1l-.652-7.206a.668.668,0,0,1,.145-.471.614.614,0,0,1,.471-.145h.724a.577.577,0,0,1,.435.145.806.806,0,0,1,.181.471l.724,7.206h2.5a.554.554,0,0,0,.616-.616v-8.22a.554.554,0,0,1,.616-.616h.616a.554.554,0,0,1,.616.616m-5.214-.76V16.2c0,.217-.109.29-.29.29H11.809c-.217,0-.29-.109-.29-.29v-.362c0-.217.109-.29.29-.29h.036a1.224,1.224,0,0,1-.362-.905,1.475,1.475,0,0,1,.543-1.159,1.952,1.952,0,0,1,1.267-.471,2.489,2.489,0,0,1,.869.181c.145.072.217.145.217.29v.109l-.145.362s-.145.217-.253.217h-.145a1.25,1.25,0,0,0-.471-.109.737.737,0,0,0-.543.217.7.7,0,0,0,.036,1.05.852.852,0,0,0,.616.217h.905c.217,0,.29.109.29.29" transform="translate(19.838 -13.01)" fill="#575756"/><path d="M13.42,24.522V14.456a.554.554,0,0,1,.616-.616h.616a.554.554,0,0,1,.616.616V24.522a.554.554,0,0,1-.616.616h-.616a.554.554,0,0,1-.616-.616" transform="translate(28.33 -10.835)" fill="#575756"/><path d="M20.811,20.418v1.81H19.29a3.964,3.964,0,0,1-.652,2.5,2.372,2.372,0,0,1-1.992.8,5.17,5.17,0,0,1-1.05-.109c-.326-.072-.507-.253-.507-.543v-.217l.109-.507a.527.527,0,0,1,.579-.471h.181c.181,0,.326.036.471.036a.79.79,0,0,0,.76-.362,2.316,2.316,0,0,0,.217-1.195v-6.59a.554.554,0,0,1,.616-.616h.616a.554.554,0,0,1,.616.616v4.78h1.521Z" transform="translate(32.707 -7.925)" fill="#575756"/><path d="M19.576,19.75V15.586a.554.554,0,0,1,.616-.616h.616a.554.554,0,0,1,.616.616V19.75a5.07,5.07,0,0,1-.181,1.521,1.063,1.063,0,0,1-.724.688,4.432,4.432,0,0,1-1.593.181H17.4a1.044,1.044,0,0,1-.724-.253.878.878,0,0,1,0-1.3,1.166,1.166,0,0,1,.724-.253h1.521a.554.554,0,0,0,.616-.616M18.309,23.7h.8a.507.507,0,0,1,.579.543v.8s-.036.326-.145.4a.577.577,0,0,1-.435.145h-.8a.577.577,0,0,1-.435-.145.5.5,0,0,1-.145-.4v-.8c0-.362.181-.543.579-.543m2.752,0h.8a.507.507,0,0,1,.579.543v.8s-.036.326-.145.4a.577.577,0,0,1-.435.145h-.8a.577.577,0,0,1-.435-.145.5.5,0,0,1-.145-.4v-.8c0-.362.181-.543.579-.543" transform="translate(36.114 -7.873)" fill="#575756"/><path d="M27.911,22.962H26.318a4.407,4.407,0,0,1-1.412,2.824,4.479,4.479,0,0,1-3.005.978,4.864,4.864,0,0,1-1.231-.109A.591.591,0,0,1,20.089,26v-.543a.5.5,0,0,1,.579-.579h.8c1.629,0,2.607-.652,2.933-1.919h-.76a6.638,6.638,0,0,1-3.005-.579A3.564,3.564,0,0,1,18.967,20.9a4.316,4.316,0,0,1-.507-2.028A4.089,4.089,0,0,1,19,16.806a3.774,3.774,0,0,1,1.7-1.557,6.476,6.476,0,0,1,2.969-.579h.217a5.349,5.349,0,0,1,1.557.181,1.173,1.173,0,0,1,.688.688,4.329,4.329,0,0,1,.181,1.557v4.019h1.521v1.81ZM21.067,20.5a4.225,4.225,0,0,0,2.643.652h.833V16.77s0-.145-.072-.181a.277.277,0,0,0-.181-.072h-.652a4.161,4.161,0,0,0-2.607.688,1.989,1.989,0,0,0-.8,1.629,2.056,2.056,0,0,0,.8,1.666" transform="translate(41.54 -8.659)" fill="#575756"/><path d="M34.912,22.856a2.62,2.62,0,0,0,1.666.435V25.1a3.338,3.338,0,0,1-3.042-1.376,3.384,3.384,0,0,1-1.34,1.014,4.54,4.54,0,0,1-1.919.362H21.8a.986.986,0,0,1-.724-.253.878.878,0,0,1,0-1.3.986.986,0,0,1,.724-.253h1.014V14.456a.554.554,0,0,1,.616-.616h.616a.554.554,0,0,1,.616.616V19.6a4.778,4.778,0,0,1,1.847-2.028,5.458,5.458,0,0,1,2.824-.724,5.289,5.289,0,0,1,2.5.579,4.819,4.819,0,0,1,1.81,1.593,4.066,4.066,0,0,1,.652,2.245v.181a1.851,1.851,0,0,0,.616,1.412m-3.005-.072a1.937,1.937,0,0,0,.507-1.521,2.429,2.429,0,0,0-1.485-2.245,3.8,3.8,0,0,0-1.593-.326,5.036,5.036,0,0,0-2.281.543,4.322,4.322,0,0,0-1.7,1.521,4.149,4.149,0,0,0-.688,2.136v.362h5.613a2.371,2.371,0,0,0,1.629-.507" transform="translate(47.646 -10.835)" fill="#575756"/><path d="M28.046,22.056V17.892a.554.554,0,0,1,.616-.616h.616a.554.554,0,0,1,.616.616v4.164a5.07,5.07,0,0,1-.181,1.521,1.14,1.14,0,0,1-.724.688,5.636,5.636,0,0,1-1.593.181H25.874a1.044,1.044,0,0,1-.724-.253.878.878,0,0,1,0-1.3,1.166,1.166,0,0,1,.724-.253h1.521a.554.554,0,0,0,.616-.616m-.978-7.93h.8a.507.507,0,0,1,.579.543v.8s-.036.326-.145.4a.577.577,0,0,1-.435.145h-.8a.577.577,0,0,1-.435-.145.5.5,0,0,1-.145-.4v-.8c0-.362.181-.543.579-.543m2.752,0h.8a.507.507,0,0,1,.579.543v.8s-.036.326-.145.4a.577.577,0,0,1-.435.145h-.8a.577.577,0,0,1-.435-.145.5.5,0,0,1-.145-.4v-.8c0-.362.181-.543.579-.543" transform="translate(58.314 -10.179)" fill="#575756"/><path d="M37.946,23.589V25.4H36.425a4.8,4.8,0,0,1-1.412-.145,1.209,1.209,0,0,1-.724-.507A2.428,2.428,0,0,1,34,23.7a2.846,2.846,0,0,1-2.643,1.376,3.314,3.314,0,0,1-1.81-.507,3.652,3.652,0,0,1-1.231-1.34,3.82,3.82,0,0,1-.435-1.81,4.173,4.173,0,0,1,.652-2.354,3.9,3.9,0,0,1,1.774-1.448,6.333,6.333,0,0,1,2.535-.507,6.254,6.254,0,0,1,1.086.072V17a.554.554,0,0,1,.616-.616h.616a.554.554,0,0,1,.616.616v5.938a.554.554,0,0,0,.616.616H37.91Zm-4.635-1.05a3.331,3.331,0,0,0,.616-2.064V18.99a5.093,5.093,0,0,0-1.014-.109,3.706,3.706,0,0,0-2.281.652,2.135,2.135,0,0,0-.905,1.883,1.988,1.988,0,0,0,.507,1.34,1.91,1.91,0,0,0,1.412.543,1.963,1.963,0,0,0,1.666-.8M30.487,13.74h.8a.507.507,0,0,1,.579.543v.8s-.036.326-.145.4a.577.577,0,0,1-.435.145h-.8a.577.577,0,0,1-.435-.145.5.5,0,0,1-.145-.4v-.8c0-.362.181-.543.579-.543m2.752,0h.8a.507.507,0,0,1,.579.543v.8s-.036.326-.145.4a.577.577,0,0,1-.435.145h-.8a.577.577,0,0,1-.435-.145.5.5,0,0,1-.145-.4v-.8c0-.362.181-.543.579-.543" transform="translate(66.229 -11.097)" fill="#575756"/><path d="M37.922,19.087a3.942,3.942,0,0,1,1.448,3.223v.507a5.07,5.07,0,0,1-.181,1.521,1.14,1.14,0,0,1-.724.688,4.432,4.432,0,0,1-1.593.181h-5.54a.9.9,0,0,1-.688-.253,1.041,1.041,0,0,1-.253-.652.873.873,0,0,1,.253-.652.9.9,0,0,1,.688-.253h5.54a.554.554,0,0,0,.616-.616v-.507a2.491,2.491,0,0,0-1.159-2.209,7.546,7.546,0,0,0-3.4-.905.634.634,0,0,1-.652-.579l-.253-1.3v-.217a.966.966,0,0,1,.29-.616A10.746,10.746,0,0,1,35.1,14.778,15.462,15.462,0,0,1,38.61,13.8h.145a.556.556,0,0,1,.579.507l.109.579v.145q0,.489-.543.543a13.638,13.638,0,0,0-2.716.724A11.194,11.194,0,0,0,33.9,17.457a7.812,7.812,0,0,1,4.019,1.521" transform="translate(72.808 -10.939)" fill="#575756"/><path d="M38.941,20.418v1.81H37.42a3.964,3.964,0,0,1-.652,2.5,2.372,2.372,0,0,1-1.992.8,5.17,5.17,0,0,1-1.05-.109c-.326-.072-.507-.253-.507-.543v-.217l.109-.507a.527.527,0,0,1,.579-.471h.181c.181,0,.326.036.471.036a.79.79,0,0,0,.76-.362,2.315,2.315,0,0,0,.217-1.195v-6.59a.554.554,0,0,1,.616-.616h.616a.554.554,0,0,1,.616.616v4.78H38.9Z" transform="translate(80.225 -7.925)" fill="#575756"/><path d="M49.692,19.191v5.25a5.07,5.07,0,0,1-.181,1.521,1.14,1.14,0,0,1-.724.688,4.432,4.432,0,0,1-1.593.181h-.76a2.746,2.746,0,0,1-2.571-1.3,2.9,2.9,0,0,1-1.123.978,3.585,3.585,0,0,1-1.521.326,2.6,2.6,0,0,1-2.462-1.376,3.384,3.384,0,0,1-1.34,1.014,4.371,4.371,0,0,1-1.883.362.986.986,0,0,1-.724-.253.878.878,0,0,1,0-1.3.986.986,0,0,1,.724-.253,2.213,2.213,0,0,0,1.629-.543,2.244,2.244,0,0,0,.507-1.666v-3.15a.554.554,0,0,1,.616-.616H38.9a.554.554,0,0,1,.616.616v3.15a2.574,2.574,0,0,0,.435,1.629,1.47,1.47,0,0,0,1.231.543,1.268,1.268,0,0,0,1.123-.543,2.889,2.889,0,0,0,.4-1.666v-3.15a.554.554,0,0,1,.616-.616h.616a.554.554,0,0,1,.616.616v3.15c0,1.448.616,2.209,1.81,2.209h.76a.554.554,0,0,0,.616-.616v-5.25a.554.554,0,0,1,.616-.616h.616a.554.554,0,0,1,.616.616m-7.314-3.766h.8a.507.507,0,0,1,.579.543v.8s-.036.326-.145.4a.577.577,0,0,1-.435.145h-.8a.577.577,0,0,1-.435-.145.5.5,0,0,1-.145-.4v-.8c0-.362.181-.543.579-.543m1.847-2.173h.8a.507.507,0,0,1,.579.543v.8s-.036.326-.145.4a.577.577,0,0,1-.435.145h-.8a.577.577,0,0,1-.435-.145.5.5,0,0,1-.145-.4v-.8c0-.362.181-.543.579-.543M46,15.353h.8a.507.507,0,0,1,.579.543v.8s-.036.326-.145.4a.577.577,0,0,1-.435.145H46a.577.577,0,0,1-.435-.145.5.5,0,0,1-.145-.4v-.8c0-.362.181-.543.579-.543" transform="translate(83.632 -12.564)" fill="#575756"/><path d="M11.224,20.277a3.711,3.711,0,0,1,1.412,1.485,4.987,4.987,0,0,1,0,4.381,3.533,3.533,0,0,1-1.412,1.412,3.825,3.825,0,0,1-1.883.471A4.453,4.453,0,0,1,7.1,27.41v.181a5.5,5.5,0,0,1-.8,3.186,2.853,2.853,0,0,1-2.426,1.05,5.1,5.1,0,0,1-.724-.036.591.591,0,0,1-.579-.652V30.6a.614.614,0,0,1,.145-.471.387.387,0,0,1,.4-.109c.217,0,.4.036.543.036a1.325,1.325,0,0,0,1.231-.579,4.077,4.077,0,0,0,.326-1.883v-3.15a5.86,5.86,0,0,1,.507-2.462,3.481,3.481,0,0,1,1.412-1.629A3.7,3.7,0,0,1,9.2,19.77a3.829,3.829,0,0,1,1.992.543m-.543,5.359a2.33,2.33,0,0,0,.616-1.7,2.314,2.314,0,0,0-.579-1.7A1.9,1.9,0,0,0,9.2,21.617a1.963,1.963,0,0,0-1.593.724A3.182,3.182,0,0,0,7.06,24.4v1.086a2.607,2.607,0,0,0,.978.543,3.529,3.529,0,0,0,1.014.181,2.158,2.158,0,0,0,1.557-.616" transform="translate(-0.108 4.708)" fill="#575756"/><path d="M6.07,29.612V19.546a.554.554,0,0,1,.616-.616H7.3a.554.554,0,0,1,.616.616V29.612a.554.554,0,0,1-.616.616H6.686a.554.554,0,0,1-.616-.616" transform="translate(9.066 2.506)" fill="#575756"/><path d="M16.295,26.215v1.81H7.786a.554.554,0,0,1-.616-.616v-.579a.554.554,0,0,1,.616-.616h5.178V24.55a2.594,2.594,0,0,0-.905-2.281,5.225,5.225,0,0,0-2.969-.652H8.655A.554.554,0,0,1,8.039,21v-.616a.554.554,0,0,1,.616-.616h.471a6.59,6.59,0,0,1,4.2,1.195,4.253,4.253,0,0,1,1.521,3.549v1.738h1.521Z" transform="translate(11.949 4.708)" fill="#575756"/><path d="M20.888,28.286V30.1H10.424a.986.986,0,0,1-.724-.253.848.848,0,0,1-.29-.652.9.9,0,0,1,.253-.688.986.986,0,0,1,.724-.253h1.629a3.955,3.955,0,0,1-.688-2.281,4.353,4.353,0,0,1,.507-2.064,3.709,3.709,0,0,1,1.7-1.521,6.638,6.638,0,0,1,3.005-.579h.29a5.349,5.349,0,0,1,1.557.181,1.294,1.294,0,0,1,.724.724A4.432,4.432,0,0,1,19.3,24.3v3.983h1.557ZM13.61,18.98h.8a.507.507,0,0,1,.579.543v.8s-.036.326-.145.4a.577.577,0,0,1-.435.145h-.8a.577.577,0,0,1-.435-.145.5.5,0,0,1-.145-.4v-.8c0-.362.181-.543.579-.543m3.657,9.306s.145,0,.181-.072.072-.109.072-.181V23.868s0-.145-.072-.181-.109-.072-.181-.072H16.58a4.177,4.177,0,0,0-2.607.652,2.079,2.079,0,0,0-.76,1.666,1.961,1.961,0,0,0,.76,1.629,4.037,4.037,0,0,0,2.607.652h.652Zm-.905-9.306h.8a.507.507,0,0,1,.579.543v.8s-.036.326-.145.4a.577.577,0,0,1-.435.145h-.8a.577.577,0,0,1-.435-.145.5.5,0,0,1-.145-.4v-.8c0-.362.181-.543.579-.543" transform="translate(17.82 2.637)" fill="#575756"/><path d="M17.866,27.245a2.379,2.379,0,0,0,1.738.507v1.81a3.206,3.206,0,0,1-3.042-1.412,3.223,3.223,0,0,1-1.34,1.05,4.54,4.54,0,0,1-1.919.362,1.044,1.044,0,0,1-.724-.253.878.878,0,0,1,0-1.3,1.166,1.166,0,0,1,.724-.253,2.213,2.213,0,0,0,1.629-.543,2.244,2.244,0,0,0,.507-1.666V22.936a.554.554,0,0,1,.616-.616h.616a.554.554,0,0,1,.616.616v2.607a2.193,2.193,0,0,0,.543,1.666M14.607,19.17h.8a.507.507,0,0,1,.579.543v.8s-.036.326-.145.4a.577.577,0,0,1-.435.145h-.8a.577.577,0,0,1-.435-.145.5.5,0,0,1-.145-.4v-.8c0-.362.181-.543.579-.543m2.752,0h.8a.507.507,0,0,1,.579.543v.8s-.036.326-.145.4a.577.577,0,0,1-.435.145h-.8a.577.577,0,0,1-.435-.145.5.5,0,0,1-.145-.4v-.8c0-.362.181-.543.579-.543" transform="translate(25.368 3.135)" fill="#575756"/><path d="M29.2,20.428v5.25a5.07,5.07,0,0,1-.181,1.521,1.14,1.14,0,0,1-.724.688,4.555,4.555,0,0,1-1.593.181h-.76a2.746,2.746,0,0,1-2.571-1.3,2.9,2.9,0,0,1-1.122.978,3.585,3.585,0,0,1-1.521.326,2.6,2.6,0,0,1-2.462-1.376,3.384,3.384,0,0,1-1.34,1.014,4.983,4.983,0,0,1-1.883.362.986.986,0,0,1-.724-.253.878.878,0,0,1,0-1.3.986.986,0,0,1,.724-.253,2.213,2.213,0,0,0,1.629-.543,2.244,2.244,0,0,0,.507-1.666V20.9a.554.554,0,0,1,.616-.616h.616a.554.554,0,0,1,.616.616v3.15a2.574,2.574,0,0,0,.435,1.629,1.47,1.47,0,0,0,1.231.543,1.268,1.268,0,0,0,1.123-.543,2.889,2.889,0,0,0,.4-1.666v-3.15a.554.554,0,0,1,.616-.616h.616a.554.554,0,0,1,.616.616v3.15c0,1.448.616,2.209,1.81,2.209h.76a.554.554,0,0,0,.616-.616v-5.25a.554.554,0,0,1,.616-.616h.616a.554.554,0,0,1,.616.616" transform="translate(29.929 4.629)" fill="#575756"/><path d="M29,27.9a2.379,2.379,0,0,0,1.738.507v1.81A3.206,3.206,0,0,1,27.7,28.805a3.223,3.223,0,0,1-1.34,1.05,4.54,4.54,0,0,1-1.919.362H19.406a.554.554,0,0,1-.616-.616v-.579a.554.554,0,0,1,.616-.616h2.1L20.854,21.2A.668.668,0,0,1,21,20.73a.614.614,0,0,1,.471-.145h.724a.577.577,0,0,1,.435.145.806.806,0,0,1,.181.471l.724,7.206h.941a2.213,2.213,0,0,0,1.629-.543,2.244,2.244,0,0,0,.507-1.666V19.536a.554.554,0,0,1,.616-.616h.616a.554.554,0,0,1,.616.616V26.2A2.193,2.193,0,0,0,29,27.864" transform="translate(42.404 2.48)" fill="#575756"/><path d="M25,27.775v-8.22a.554.554,0,0,1,.616-.616h.616a.554.554,0,0,1,.616.616v8.22a5.07,5.07,0,0,1-.181,1.521,1.14,1.14,0,0,1-.724.688,5.637,5.637,0,0,1-1.593.181H22.824a.986.986,0,0,1-.724-.253.878.878,0,0,1,0-1.3.986.986,0,0,1,.724-.253h1.521a.554.554,0,0,0,.616-.616" transform="translate(50.32 2.532)" fill="#575756"/><path d="M34.7,28.679v1.81H33.176a4.8,4.8,0,0,1-1.412-.145,1.209,1.209,0,0,1-.724-.507,2.428,2.428,0,0,1-.29-1.05,2.846,2.846,0,0,1-2.643,1.376,3.314,3.314,0,0,1-1.81-.507,3.652,3.652,0,0,1-1.231-1.34,3.82,3.82,0,0,1-.435-1.81,4.173,4.173,0,0,1,.652-2.354A3.9,3.9,0,0,1,27.056,22.7a6.332,6.332,0,0,1,2.535-.507,6.254,6.254,0,0,1,1.086.072v-.181a.554.554,0,0,1,.616-.616h.616a.554.554,0,0,1,.616.616v5.938a.554.554,0,0,0,.616.616H34.66Zm-4.635-1.05a3.331,3.331,0,0,0,.616-2.064V24.08a5.093,5.093,0,0,0-1.014-.109,3.706,3.706,0,0,0-2.281.652,2.135,2.135,0,0,0-.905,1.883,1.988,1.988,0,0,0,.507,1.34,1.91,1.91,0,0,0,1.412.543,1.963,1.963,0,0,0,1.666-.8M27.237,18.83h.8a.507.507,0,0,1,.579.543v.8s-.036.326-.145.4a.577.577,0,0,1-.435.145h-.8a.577.577,0,0,1-.435-.145.5.5,0,0,1-.145-.4v-.8c0-.362.181-.543.579-.543m2.752,0h.8a.507.507,0,0,1,.579.543v.8s-.036.326-.145.4a.577.577,0,0,1-.435.145h-.8a.577.577,0,0,1-.435-.145.5.5,0,0,1-.145-.4v-.8c0-.362.181-.543.579-.543" transform="translate(57.711 2.244)" fill="#575756"/><path d="M32.7,27.9a2.379,2.379,0,0,0,1.738.507v1.81a3.206,3.206,0,0,1-3.042-1.412,3.223,3.223,0,0,1-1.34,1.05,4.54,4.54,0,0,1-1.919.362.986.986,0,0,1-.724-.253.878.878,0,0,1,0-1.3.986.986,0,0,1,.724-.253,2.213,2.213,0,0,0,1.629-.543A2.244,2.244,0,0,0,30.27,26.2V19.536a.554.554,0,0,1,.616-.616H31.5a.554.554,0,0,1,.616.616V26.2a2.193,2.193,0,0,0,.543,1.666" transform="translate(64.237 2.48)" fill="#575756"/><path d="M37.53,20.329a3.711,3.711,0,0,1,1.412,1.485,4.54,4.54,0,0,1,.507,2.136,4.343,4.343,0,0,1-.543,2.209,3.758,3.758,0,0,1-3.331,1.955,4.18,4.18,0,0,1-1.593-.326,4.652,4.652,0,0,1-1.448-.978,2.852,2.852,0,0,1-1.122.941,3.632,3.632,0,0,1-1.557.326,1.044,1.044,0,0,1-.724-.253.878.878,0,0,1,0-1.3,1.166,1.166,0,0,1,.724-.253,1.587,1.587,0,0,0,.833-.217,1.128,1.128,0,0,0,.507-.579c.072-.217.145-.4.217-.616.036-.181.109-.4.145-.616l.217-.978a5.281,5.281,0,0,1,1.376-2.607A3.251,3.251,0,0,1,35.5,19.75a3.829,3.829,0,0,1,1.992.543m-.507,5.323a2.371,2.371,0,0,0,.579-1.7,2.338,2.338,0,0,0-.579-1.666A1.9,1.9,0,0,0,35.5,21.6a1.477,1.477,0,0,0-1.159.471,3.541,3.541,0,0,0-.724,1.485,13.11,13.11,0,0,0-.326,1.485,3.625,3.625,0,0,0,1.086.905,2.385,2.385,0,0,0,1.159.29,1.969,1.969,0,0,0,1.448-.616" transform="translate(68.745 4.655)" fill="#575756"/><path d="M34.848,28.365h1.521v1.81H34.848a5.637,5.637,0,0,1-1.593-.181,1.347,1.347,0,0,1-.724-.688,4.109,4.109,0,0,1-.181-1.521v-8.22a.554.554,0,0,1,.616-.616h.616a.554.554,0,0,1,.616.616v8.22a.554.554,0,0,0,.616.616" transform="translate(77.945 2.559)" fill="#575756"/><path d="M45.238,26.215v1.81H41.291a1.457,1.457,0,0,1-.941-.253,2.87,2.87,0,0,1-.616-.688,2.87,2.87,0,0,1-.616.688,1.457,1.457,0,0,1-.941.253H34.194a1.044,1.044,0,0,1-.724-.253.878.878,0,0,1,0-1.3,1.166,1.166,0,0,1,.724-.253h3.042l-1.521-1.376a4.16,4.16,0,0,1-.29-.362c0-.109-.036-.253-.036-.471a4.07,4.07,0,0,1,.579-2.173,4.025,4.025,0,0,1,1.593-1.521,4.763,4.763,0,0,1,4.418,0,4.277,4.277,0,0,1,1.593,1.521,4.07,4.07,0,0,1,.579,2.173,1,1,0,0,1-.109.471.828.828,0,0,1-.253.362l-1.521,1.376h2.969ZM37.96,22.268a2.427,2.427,0,0,0-.76,1.738l2.535,2.317,2.535-2.317a2.494,2.494,0,0,0-.76-1.738,2.643,2.643,0,0,0-3.476,0" transform="translate(80.12 4.708)" fill="#575756"/><path d="M39.416,27.775v-8.22a.554.554,0,0,1,.616-.616h.616a.554.554,0,0,1,.616.616v8.22a5.07,5.07,0,0,1-.181,1.521,1.14,1.14,0,0,1-.724.688,5.637,5.637,0,0,1-1.593.181H37.244a.986.986,0,0,1-.724-.253.878.878,0,0,1,0-1.3.986.986,0,0,1,.724-.253h1.521a.554.554,0,0,0,.616-.616" transform="translate(88.114 2.532)" fill="#575756"/><path d="M38.2,29.612V19.546a.554.554,0,0,1,.616-.616h.616a.554.554,0,0,1,.616.616V29.612a.554.554,0,0,1-.616.616h-.616a.554.554,0,0,1-.616-.616" transform="translate(93.278 2.506)" fill="#575756"/></g></g></svg>