<svg xmlns="http://www.w3.org/2000/svg" width="128" height="128" viewBox="0 0 128 128"><g transform="translate(-141 -410)"><g opacity="0"><rect width="128" height="128" transform="translate(141 410)" fill="#bd0d44"/><path d="M1,1V127H127V1H1M0,0H128V128H0Z" transform="translate(141 410)" fill="#707070"/></g><g transform="translate(141 410)"><g transform="translate(0 0)"><path d="M95.2,112.722H8.507a4.259,4.259,0,0,1-4.254-4.254V8.507A4.259,4.259,0,0,1,8.507,4.254H47.343a4.245,4.245,0,0,1,3.684,2.139L57.7,18.07a2.127,2.127,0,0,0,1.846,1.072h63.8V105.83a2.127,2.127,0,1,0,4.254,0V8.507A8.516,8.516,0,0,0,119.1,0H8.507A8.516,8.516,0,0,0,0,8.507v99.961a8.516,8.516,0,0,0,8.507,8.507H95.2a2.127,2.127,0,1,0,0-4.254ZM123.356,8.507v6.38H60.785L54.72,4.285c-.006-.011-.014-.02-.021-.031h64.4a4.259,4.259,0,0,1,4.254,4.254Z" transform="translate(0 0)" fill="#72c4c7"/><circle cx="2.162" cy="2.162" r="2.162" transform="translate(42.153 10.809)" fill="#72c4c7"/></g><g transform="translate(46.013 46.403)"><path d="M38.968,17A21.968,21.968,0,1,0,60.937,38.968,21.993,21.993,0,0,0,38.968,17Zm0,40.8A18.83,18.83,0,1,1,57.8,38.968,18.851,18.851,0,0,1,38.968,57.8Z" transform="translate(-9.154 -9.154)" fill="#bd0d44"/><path d="M91.512,81.448l-12.5-12.5a1.615,1.615,0,0,0-2.219,0l-.46.46-4.842-4.842,1.244-1.244a1.569,1.569,0,0,0,0-2.219l-4.856-4.856A29.862,29.862,0,1,0,56.248,67.882L61.1,72.738a1.569,1.569,0,0,0,2.219,0l1.244-1.244,4.842,4.842-.46.46a1.569,1.569,0,0,0,0,2.219l12.5,12.5A7.117,7.117,0,1,0,91.512,81.448ZM15.138,41.814A26.676,26.676,0,1,1,41.814,68.49,26.706,26.706,0,0,1,15.138,41.814ZM58.965,66.161a30.028,30.028,0,0,0,7.2-7.2l3.249,3.249-7.2,7.2Zm7.821,3.114,2.489-2.489,4.842,4.842-2.489,2.489ZM86.48,90.459a3.952,3.952,0,0,1-2.813-1.165L72.278,77.905l5.627-5.627L89.293,83.667a3.978,3.978,0,0,1-2.813,6.792Z" transform="translate(-12 -12)" fill="#bd0d44"/><path d="M43.37,25.46a1.569,1.569,0,0,0-2.219,0L34.415,32.2,27.679,25.46a1.569,1.569,0,0,0-2.219,2.219L32.2,34.415,25.46,41.151a1.569,1.569,0,1,0,2.219,2.219l6.736-6.736,6.736,6.736a1.569,1.569,0,0,0,2.219-2.219l-6.736-6.736,6.736-6.736a1.569,1.569,0,0,0,0-2.219Z" transform="translate(-4.601 -4.601)" fill="#bd0d44"/></g></g></g></svg>