<svg xmlns="http://www.w3.org/2000/svg" width="128" height="128" viewBox="0 0 128 128"><g transform="translate(-94.763 -345.417)"><rect width="128" height="128" transform="translate(94.763 345.417)" fill="#fff" opacity="0"/><g transform="translate(94.961 348.335)"><g transform="translate(0 0)"><path d="M127.274,66.216l-.224-1.989a13.642,13.642,0,0,0-8.5-11.165,23.857,23.857,0,0,1-5.321-2.86l6.391,1.616a4,4,0,0,0,1.094.124,4.351,4.351,0,0,0,4.327-4.352V29.314A20.625,20.625,0,0,0,104.421,8.7h-2.089a21.8,21.8,0,0,0-5.371.7,10.6,10.6,0,0,0-4.153,2.561,17.686,17.686,0,0,1-1.492,1.218,12.152,12.152,0,0,1-1.591.845,8.637,8.637,0,0,0-3.357,2.263,20.606,20.606,0,0,0-4.575,11.638,21.2,21.2,0,0,0-16.934-8.43H62.7a22.036,22.036,0,0,0-5.545.721A10.492,10.492,0,0,0,52.9,22.849a14.938,14.938,0,0,1-1.567,1.243,13.226,13.226,0,0,1-1.666.87A8.818,8.818,0,0,0,46.234,27.3c-.174.2-.323.423-.472.622A20.625,20.625,0,0,0,25.2,8.7H23.108a21.648,21.648,0,0,0-5.371.7,10.6,10.6,0,0,0-4.153,2.561,14.774,14.774,0,0,1-1.517,1.218,12.15,12.15,0,0,1-1.591.845,8.637,8.637,0,0,0-3.357,2.263,20.647,20.647,0,0,0-4.625,13.03V47.666a4.356,4.356,0,0,0,4.352,4.352,4.8,4.8,0,0,0,1.044-.124l6.092-1.542A24.5,24.5,0,0,1,8.76,53.136,13.565,13.565,0,0,0,.28,64.252L.007,66.738a4.113,4.113,0,0,0,1.467,3.655,34.838,34.838,0,0,0,38.145,4.178,14.975,14.975,0,0,0-.472,2.337l-.3,2.586a4.358,4.358,0,0,0,.579,2.673s.509-.025.509-.025a34.031,34.031,0,0,1,15.57-9.216c4.32-1.211,12.173.256,16.624,0,9.827-.565,16.328,6.535,16.277,6.07l-.224-2.039a13.04,13.04,0,0,0-.373-1.964,34.831,34.831,0,0,0,38.046-5.147,4.211,4.211,0,0,0,1.417-3.631Zm-42.149-36.9A17.211,17.211,0,0,1,89,18.423,5.719,5.719,0,0,1,91.143,17.1a16.858,16.858,0,0,0,2.089-1.119,17.326,17.326,0,0,0,1.815-1.467,7.5,7.5,0,0,1,2.81-1.84,17.166,17.166,0,0,1,4.476-.6H104.4a17.256,17.256,0,0,1,17.232,17.232V47.666a.966.966,0,0,1-.945.97.846.846,0,0,1-.249-.025l-4.7-1.194a20.9,20.9,0,0,0,4.028-12.533c0-.373,0-.746-.025-1.144a2.274,2.274,0,0,0-2.362-2.163A20.984,20.984,0,0,1,99.6,22.949a2.273,2.273,0,0,0-1.84-.92,2.3,2.3,0,0,0-1.84.945c-2.561,3.506-5.1,4.575-6.764,4.849a2.3,2.3,0,0,0-1.84,1.691,20.627,20.627,0,0,0-.647,5.371,21,21,0,0,0,4.078,12.607l-4.426,1.119a.688.688,0,0,1-.224.025V40.778a21.438,21.438,0,0,0-.995-6.391ZM112.18,46.5a13.627,13.627,0,0,1-1.492,1.442,12.37,12.37,0,0,1-1.766,1.218,12.167,12.167,0,0,1-3.183,1.268,11.191,11.191,0,0,1-4.973,0,11.556,11.556,0,0,1-3.108-1.218,12.968,12.968,0,0,1-3.282-2.661,17.36,17.36,0,0,1-4.3-11.687,18.68,18.68,0,0,1,.4-3.879,13.876,13.876,0,0,0,7.311-4.9,24.3,24.3,0,0,0,18.55,8.9h.1A17.64,17.64,0,0,1,112.18,46.5ZM93.256,50.327a24.5,24.5,0,0,1-5.222,2.785,13.974,13.974,0,0,0-1.94.945V52.017a4.992,4.992,0,0,0,1.044-.124ZM44.816,57.14V40.753a17.887,17.887,0,0,1,4.028-11.314,6.059,6.059,0,0,1,2.238-1.393A15.016,15.016,0,0,0,53.246,26.9a21.937,21.937,0,0,0,1.89-1.517,7.948,7.948,0,0,1,2.934-1.915,18.373,18.373,0,0,1,4.65-.622h2.163A17.882,17.882,0,0,1,82.762,40.728V59.7a1.051,1.051,0,0,1-1.044,1.044,1.02,1.02,0,0,1-.274-.025l-.9-.224-4.028-1.02a21.833,21.833,0,0,0,4.2-13.005c0-.4,0-.771-.025-1.169a2.277,2.277,0,0,0-2.387-2.163c-10.668.522-16.81-6.714-18.451-8.952a2.308,2.308,0,0,0-1.84-.92,2.263,2.263,0,0,0-1.84.945c-2.661,3.655-5.3,4.75-7.012,5.023A2.321,2.321,0,0,0,47.3,40.952a23.179,23.179,0,0,0-.671,5.545,21.617,21.617,0,0,0,4.252,13.08l-3.929.995-.721.174a.969.969,0,0,1-.9-.2.994.994,0,0,1-.4-.845Zm28.049,1.442A12.657,12.657,0,0,1,71.3,60.074a15.418,15.418,0,0,1-1.666,1.169,11.724,11.724,0,0,1-2.984,1.268,11.605,11.605,0,0,1-6.117,0,12.624,12.624,0,0,1-2.885-1.194,13.589,13.589,0,0,1-1.691-1.169,11.121,11.121,0,0,1-1.567-1.492A17.967,17.967,0,0,1,49.914,46.5a20.209,20.209,0,0,1,.423-4.053,14.193,14.193,0,0,0,7.609-5.1,25.121,25.121,0,0,0,19.2,9.225h.149A17.88,17.88,0,0,1,72.866,58.582Zm.995,3.73L79.6,63.779a2.752,2.752,0,0,0-.05.472L79.43,65.4a24.844,24.844,0,0,1-5.595-3.034A.077.077,0,0,1,73.86,62.312Zm-20.391.1a25.241,25.241,0,0,1-5.52,2.984l-.124-1.144c-.025-.149-.025-.274-.05-.423l5.67-1.442C53.445,62.412,53.445,62.412,53.47,62.412Zm-4.3,6.142a26.99,26.99,0,0,0,7.211-4.1,14.856,14.856,0,0,0,14.547-.05,26.916,26.916,0,0,0,7.261,4.153,10.485,10.485,0,0,1,1.666.845,3.69,3.69,0,0,0,.87.995c.622.5,1.243.995,1.865,1.467,1.243,1.567,1.852,5.3,2.076,7.289-1.143-.484-5.694-5.612-7.7-5.81-1.371-.136-13.346-1.873-15.27-1.887C49.055,71.363,42.733,81.747,42.5,81.972v-4.69a10.7,10.7,0,0,1,6.664-8.728ZM7.094,48.586a.882.882,0,0,1-.821-.174.931.931,0,0,1-.373-.771V29.314A17.211,17.211,0,0,1,9.779,18.423,5.719,5.719,0,0,1,11.918,17.1a15.252,15.252,0,0,0,2.089-1.119,17.328,17.328,0,0,0,1.815-1.467,7.428,7.428,0,0,1,2.785-1.84,17.027,17.027,0,0,1,4.476-.6h2.089A17.272,17.272,0,0,1,42.4,29.314v5.1a21.211,21.211,0,0,0-.97,6.341v7.858a.689.689,0,0,1-.224-.025l-4.65-1.194A21.16,21.16,0,0,0,40.589,34.86c0-.373-.025-.746-.025-1.144a2.312,2.312,0,0,0-2.387-2.163A20.984,20.984,0,0,1,20.4,22.924,2.261,2.261,0,0,0,18.582,22a2.3,2.3,0,0,0-1.84.945c-2.611,3.531-5.147,4.575-6.813,4.849a2.3,2.3,0,0,0-1.84,1.691,23,23,0,0,0-.647,5.371A21.147,21.147,0,0,0,11.5,47.467Zm34.341,3.407v2.163A13.208,13.208,0,0,0,39.3,53.087a22.886,22.886,0,0,1-5.321-2.86l6.391,1.616A4.1,4.1,0,0,0,41.434,51.993ZM10.824,34.86a18.679,18.679,0,0,1,.4-3.879,13.876,13.876,0,0,0,7.311-4.9,24.3,24.3,0,0,0,18.55,8.9h.1a17.25,17.25,0,0,1-4.227,11.488,13.628,13.628,0,0,1-1.492,1.442A24.787,24.787,0,0,1,26.514,50.4a11.192,11.192,0,0,1-4.973,0,11.556,11.556,0,0,1-3.108-1.218,12.855,12.855,0,0,1-1.815-1.218A13.645,13.645,0,0,1,15.1,46.547,17.344,17.344,0,0,1,10.824,34.86ZM23.7,75.019A31.562,31.562,0,0,1,3.612,67.783a.788.788,0,0,1-.274-.671l.274-2.487A10.215,10.215,0,0,1,10,56.245a26.343,26.343,0,0,0,6.963-3.954,14.478,14.478,0,0,0,14.05-.025,26.263,26.263,0,0,0,7.012,4,10.156,10.156,0,0,1,3.382,2.188v1.293a4.417,4.417,0,0,0,1.716,3.506,4.639,4.639,0,0,0,1.194.671,7.175,7.175,0,0,1,.1.721l.224,1.964a.844.844,0,0,1-.249.671A31.386,31.386,0,0,1,23.7,75.019Zm99.963-7.758a31.449,31.449,0,0,1-38.742,2.064,14.536,14.536,0,0,0-2.288-2.163v-.075l.274-2.487a5.035,5.035,0,0,1,.1-.647,4.456,4.456,0,0,0,3.108-4.227V58.234A9.893,9.893,0,0,1,89.3,56.22a26.343,26.343,0,0,0,6.963-3.954,14.478,14.478,0,0,0,14.05-.025,26.262,26.262,0,0,0,7.012,4,10.259,10.259,0,0,1,6.391,8.38l.224,1.964A.879.879,0,0,1,123.668,67.261Z" transform="translate(0.024 -8.7)" fill="#72c4c7"/></g><path d="M30.46,0A30.46,30.46,0,1,1,0,30.46,30.46,30.46,0,0,1,30.46,0Z" transform="translate(33.202 61.528)" fill="none"/><path d="M226.059,322.01a1.907,1.907,0,0,0-2.661,0l-11.314,11.314L200.77,322.01a1.881,1.881,0,1,0-2.661,2.661l11.314,11.314L198.11,347.3a1.881,1.881,0,1,0,2.661,2.661l11.314-11.314L223.4,349.96a1.861,1.861,0,0,0,2.661,0,1.884,1.884,0,0,0,0-2.661l-11.314-11.314,11.314-11.314A1.861,1.861,0,0,0,226.059,322.01Z" transform="translate(-148.423 -243.997)" fill="#bd0d44"/><path d="M31,4A27.008,27.008,0,0,0,20.492,55.88,27.008,27.008,0,0,0,41.508,6.12,26.827,26.827,0,0,0,31,4m0-4A31,31,0,1,1,0,31,31,31,0,0,1,31,0Z" transform="translate(32.802 60.081)" fill="#bd0d44"/></g></g></svg>