<svg xmlns="http://www.w3.org/2000/svg" width="24" height="24" viewBox="0 0 24 24"><g transform="translate(-147 -1433)"><rect width="24" height="24" transform="translate(147 1433)" fill="#6b7280" opacity="0"/><g transform="translate(146.958 1434)"><g transform="translate(4.002 1)"><g transform="translate(0)"><path d="M18.519,7.514h-1v-2.5a3.509,3.509,0,1,0-7.019,0v2.5h-1v-2.5a4.509,4.509,0,0,1,9.019,0Z" transform="translate(-5.989 -1)" fill="#bd0d44"/><path d="M3-.5H13A3.5,3.5,0,0,1,16.5,3V8A3.5,3.5,0,0,1,13,11.5H3A3.5,3.5,0,0,1-.5,8V3A3.5,3.5,0,0,1,3-.5Zm10,11A2.5,2.5,0,0,0,15.5,8V3A2.5,2.5,0,0,0,13,.5H3A2.5,2.5,0,0,0,.5,3V8A2.5,2.5,0,0,0,3,10.5Z" transform="translate(0.04 9)" fill="#bd0d44"/><g transform="translate(6.015 12.03)"><path d="M.5,3.5h-1v-4h1Z" transform="translate(2.025 2.97)" fill="#bd0d44"/><path d="M2-.5A2.5,2.5,0,1,1-.5,2,2.5,2.5,0,0,1,2-.5Zm0,4A1.5,1.5,0,1,0,.5,2,1.5,1.5,0,0,0,2,3.5Z" transform="translate(0.025 -1.03)" fill="#bd0d44"/></g></g></g></g></g></svg>