<svg xmlns="http://www.w3.org/2000/svg" width="24" height="24" viewBox="0 0 24 24"><g transform="translate(-147 -1433)"><rect width="24" height="24" transform="translate(147 1433)" fill="#6b7280" opacity="0"/><g transform="translate(148 1434)"><g transform="translate(1 1)"><path d="M17.214,21.5H17.16A17.955,17.955,0,0,1,5.592,16.418l-.008-.008A17.954,17.954,0,0,1,.5,4.845V4.833a1.32,1.32,0,0,1,.994-1.327l3.628-.958a1.326,1.326,0,0,1,1.557.758l1.979,4.62a1.324,1.324,0,0,1-.272,1.446L6.763,11.021a15.373,15.373,0,0,0,1.859,2.357,15.2,15.2,0,0,0,2.358,1.859l1.647-1.622a1.325,1.325,0,0,1,1.456-.275L18.7,15.319a1.333,1.333,0,0,1,.758,1.558L18.5,20.509A1.324,1.324,0,0,1,17.214,21.5Zm-.007-1h.007a.325.325,0,0,0,.315-.244l.96-3.635a.327.327,0,0,0-.186-.383L13.687,14.26a.327.327,0,0,0-.358.067l-2.2,2.172-.333-.2A16.194,16.194,0,0,1,7.92,14.092l-.013-.013A16.372,16.372,0,0,1,5.7,11.21l-.2-.333,2.172-2.2a.325.325,0,0,0,.066-.354L5.76,3.7a.326.326,0,0,0-.383-.186l-3.631.959A.326.326,0,0,0,1.5,4.8,16.955,16.955,0,0,0,6.295,15.706,16.956,16.956,0,0,0,17.207,20.5Z" transform="translate(-1 -1)" fill="#bd0d44"/><path d="M23.5,10.5h-1V10A8.51,8.51,0,0,0,14,1.5h-.5V.5H14A9.511,9.511,0,0,1,23.5,10Z" transform="translate(-3 -1)" fill="#bd0d44"/><path d="M19.5,10.5h-1V10A4.505,4.505,0,0,0,14,5.5h-.5v-1H14A5.506,5.506,0,0,1,19.5,10Z" transform="translate(-2.529 -1.471)" fill="#bd0d44"/></g></g></g></svg>