<svg xmlns="http://www.w3.org/2000/svg" width="72" height="72" viewBox="0 0 72 72"><path d="M64.266,0H7.734A7.743,7.743,0,0,0,0,7.734V47.109a7.743,7.743,0,0,0,7.734,7.734H64.266A7.743,7.743,0,0,0,72,47.109V7.734A7.743,7.743,0,0,0,64.266,0ZM34.594,26.407l-4.83,4.71,1.14,6.649a2.112,2.112,0,0,1-3.064,2.223l-5.972-3.144-5.977,3.144a2.109,2.109,0,0,1-3.061-2.223l1.14-6.649-4.829-4.71a2.109,2.109,0,0,1-.636-1.581,2.084,2.084,0,0,1,.1-.582,2.109,2.109,0,0,1,1.7-1.436l6.677-.969,2.985-6.047a2.109,2.109,0,0,1,3.783,0l2.985,6.047,6.677.969a2.109,2.109,0,0,1,1.7,1.436,2.084,2.084,0,0,1,.1.582,2.109,2.109,0,0,1-.627,1.581ZM57.4,36.461a8.909,8.909,0,0,1-6.1,2.24A10.79,10.79,0,0,1,45.719,37.3a1.055,1.055,0,0,1-.43-1.215l.681-2.073a1.055,1.055,0,0,1,1.54-.578,8.023,8.023,0,0,0,3.762.966c1.787,0,3.71-1.035,3.71-3.307-.027-2.25-1.617-3.4-4.731-3.4a18.755,18.755,0,0,0-2.5.188l-.155.02a1.055,1.055,0,0,1-1.177-1.187l1.3-9.652a1.055,1.055,0,0,1,1.045-.914h9.623A1.055,1.055,0,0,1,59.442,17.2v2.289a1.055,1.055,0,0,1-1.055,1.055H51.623l-.444,2.943h.4a9.474,9.474,0,0,1,4.864,1.226,6.779,6.779,0,0,1,3.4,6.078,7.637,7.637,0,0,1-2.445,5.673Z" fill="#bd0d44"/><path d="M116.032,156.022l-1.585-3.212-1.585,3.212a2.11,2.11,0,0,1-1.588,1.153l-3.545.515,2.569,2.5a2.11,2.11,0,0,1,.637,1.482,2.075,2.075,0,0,1-.031.384l-.6,3.53,3.17-1.666a2.109,2.109,0,0,1,1.969,0l3.157,1.666-.6-3.53a2.075,2.075,0,0,1-.031-.384,2.11,2.11,0,0,1,.636-1.482l2.565-2.5-3.545-.515A2.109,2.109,0,0,1,116.032,156.022Z" transform="translate(-92.58 -131.321)" fill="#bd0d44"/><path d="M188.13,432.127a2.111,2.111,0,0,0,1.62.811h.048a2.109,2.109,0,0,0,1.6-.736L201.863,420h-23.2Z" transform="translate(-153.536 -360.938)" fill="#bd0d44"/></svg>