<svg xmlns="http://www.w3.org/2000/svg" width="24" height="24" viewBox="0 0 24 24"><g transform="translate(-417 -1549)"><rect width="24" height="24" transform="translate(417 1549)" fill="#6b7280" opacity="0"/><g transform="translate(418 1549.908)"><g transform="translate(1 2.092)"><path d="M11,18.868a10.34,10.34,0,0,1-6.367-2.416,19.133,19.133,0,0,1-3.7-3.915,2.342,2.342,0,0,1,0-2.7,19.137,19.137,0,0,1,3.7-3.917A10.34,10.34,0,0,1,11,3.5a10.34,10.34,0,0,1,6.367,2.416,19.133,19.133,0,0,1,3.7,3.915,2.342,2.342,0,0,1,0,2.7,19.137,19.137,0,0,1-3.7,3.917A10.34,10.34,0,0,1,11,18.868ZM11,4.5c-4.537,0-7.983,4.135-9.254,5.913a1.34,1.34,0,0,0,0,1.545c1.27,1.776,4.716,5.911,9.253,5.911s7.983-4.135,9.254-5.913a1.34,1.34,0,0,0,0-1.545C18.984,8.635,15.537,4.5,11,4.5Z" transform="translate(-1 -2.182)" fill="#bd0d44"/><path d="M3.5-.5a4,4,0,1,1-4,4A4,4,0,0,1,3.5-.5Zm0,7a3,3,0,1,0-3-3A3,3,0,0,0,3.5,6.5Z" transform="translate(6.5 5.548)" fill="#bd0d44"/><path d="M0,18.8-.707,18.1,18-.707,18.707,0Z" transform="translate(1 0)" fill="#bd0d44"/></g></g></g></svg>