<svg xmlns="http://www.w3.org/2000/svg" width="128" height="128" viewBox="0 0 128 128"><g transform="translate(-131 -351.733)"><g opacity="0"><rect width="128" height="128" transform="translate(131 351.733)" fill="#bd0d44"/><path d="M1,1V127H127V1H1M0,0H128V128H0Z" transform="translate(131 351.733)" fill="#707070"/></g><g transform="translate(137.203 352.116)"><g transform="translate(63.381 107.802)"><path d="M55.733,97.815a1.387,1.387,0,0,1-.335-2.733A73.99,73.99,0,0,0,80.56,83.011a1.387,1.387,0,0,1,1.62,2.253,76.735,76.735,0,0,1-26.11,12.51,1.385,1.385,0,0,1-.337.041Z" transform="translate(-54.347 -82.75)" fill="#bd0d44"/></g><g transform="translate(52.701 113.278)"><path d="M52.779,101.165A6.4,6.4,0,0,1,46.4,94.993a1.387,1.387,0,0,1,1.337-1.435A1.414,1.414,0,0,1,49.169,94.9,3.593,3.593,0,0,0,50.807,97.8a3.649,3.649,0,0,0,5.041-1.063l.981-1.519A3.625,3.625,0,0,0,52.7,89.774a1.387,1.387,0,1,1-.845-2.642,6.4,6.4,0,0,1,7.3,9.6l-.981,1.519a6.443,6.443,0,0,1-5.394,2.915Z" transform="translate(-46.396 -86.826)" fill="#bd0d44"/></g><g transform="translate(44.486 103.638)"><path d="M46.672,99.959a6.408,6.408,0,0,1-6.389-6.552,1.351,1.351,0,0,1,1.422-1.352,1.387,1.387,0,0,1,1.352,1.421,3.631,3.631,0,0,0,6.675,2.054L54.6,88.038a3.526,3.526,0,0,0,.581-1.976,3.629,3.629,0,0,0-6.676-1.989l-.637.981a1.387,1.387,0,1,1-2.327-1.509l.638-.985a6.4,6.4,0,0,1,11.776,3.5,6.338,6.338,0,0,1-1.032,3.494l-4.865,7.486a6.363,6.363,0,0,1-4.046,2.776,6.492,6.492,0,0,1-1.341.141Z" transform="translate(-40.281 -79.65)" fill="#bd0d44"/></g><g transform="translate(34.61 101.799)"><path d="M39.326,98.584a6.407,6.407,0,0,1-6.4-6.512,1.387,1.387,0,0,1,1.387-1.365h.023a1.388,1.388,0,0,1,1.364,1.41,3.6,3.6,0,0,0,1.643,3.1,3.641,3.641,0,0,0,5.031-1.062l4.87-7.479a3.636,3.636,0,0,0-6.095-3.967l-.619.965a1.387,1.387,0,0,1-2.335-1.5l.623-.971a6.411,6.411,0,1,1,10.748,6.99l-4.866,7.473a6.352,6.352,0,0,1-4.044,2.776,6.44,6.44,0,0,1-1.336.14Z" transform="translate(-32.929 -78.281)" fill="#bd0d44"/></g><g transform="translate(28.195 66.754)"><path d="M89.005,96.154a8.7,8.7,0,0,1-6.29-2.688l-8.952-9.3C62.685,83.129,54.4,77.763,49.1,68.2a47.587,47.587,0,0,1-7.689,7.017,8.874,8.874,0,0,1-12.334-2.159c-.233-.328-.463-.674-.7-1.038a1.387,1.387,0,0,1,.206-1.761c9.278-8.831,17.683-16.276,26.6-17.943a8.218,8.218,0,0,1,2.65-.036,60.767,60.767,0,0,1,24.157,8.625,5.311,5.311,0,0,0,4.594.523L105.139,55a1.387,1.387,0,1,1,.908,2.621l-18.56,6.429a8.067,8.067,0,0,1-6.982-.8A58.026,58.026,0,0,0,57.442,55.03a5.448,5.448,0,0,0-1.754.016C47.782,56.524,39.962,63.3,31.347,71.463a6.1,6.1,0,0,0,8.465,1.49,48.877,48.877,0,0,0,8.541-8.087,1.387,1.387,0,0,1,2.293.3c4.919,10.056,12.724,15.382,23.867,16.283a1.393,1.393,0,0,1,.887.42l9.313,9.672a5.953,5.953,0,0,0,5.55,1.706l23.1-4.88a1.387,1.387,0,0,1,.574,2.715l-23.1,4.88a8.888,8.888,0,0,1-1.833.192Z" transform="translate(-28.153 -52.193)" fill="#bd0d44"/></g><g transform="translate(6.232 70.59)"><path d="M33.942,62.689c-5.654,0-12.379-1.384-21.19-4.321a1.387,1.387,0,0,1,.878-2.632c10.355,3.452,17.63,4.684,23.608,3.995a6.38,6.38,0,0,0,1.986-.61A50.007,50.007,0,0,1,51.71,55.068a1.387,1.387,0,0,1,.458,2.736,47.213,47.213,0,0,0-11.779,3.835,9.12,9.12,0,0,1-2.839.848,31.274,31.274,0,0,1-3.608.2Z" transform="translate(-11.804 -55.048)" fill="#bd0d44"/></g><g transform="translate(0 102.663)"><path d="M35.035,86.973a1.391,1.391,0,0,1-.31-.035L24.6,84.626,8.306,81.678a1.387,1.387,0,1,1,.493-2.73l16.356,2.96,10.187,2.325a1.387,1.387,0,0,1-.308,2.74Z" transform="translate(-7.165 -78.924)" fill="#bd0d44"/></g><g transform="translate(24.739 99.953)"><path d="M31.98,97.218a6.411,6.411,0,0,1-5.359-9.908l4.87-7.487a6.41,6.41,0,0,1,10.745,6.991L37.366,94.3a6.369,6.369,0,0,1-4.045,2.776A6.5,6.5,0,0,1,31.98,97.218Zm4.89-17.536a3.669,3.669,0,0,0-.76.08,3.606,3.606,0,0,0-2.293,1.574l-4.871,7.487a3.635,3.635,0,0,0,1.065,5.03h0a3.635,3.635,0,0,0,5.03-1.065l4.87-7.487a3.638,3.638,0,0,0-3.041-5.62Z" transform="translate(-25.581 -76.907)" fill="#bd0d44"/></g><g transform="translate(3.874 0)"><g transform="translate(22.882)"><path d="M57.868,66.7a5.286,5.286,0,0,1-3.116-1.015L49.766,62.06a2.5,2.5,0,0,0-1.485-.483H42.119a5.285,5.285,0,0,1-5.041-3.663l-1.9-5.861a2.513,2.513,0,0,0-.917-1.262L29.27,47.168a5.289,5.289,0,0,1-1.926-5.926l1.9-5.862a2.494,2.494,0,0,0,0-1.559l-1.9-5.863A5.29,5.29,0,0,1,29.27,22.03l4.985-3.622a2.51,2.51,0,0,0,.918-1.264l1.9-5.86a5.286,5.286,0,0,1,5.041-3.662h6.162a2.5,2.5,0,0,0,1.483-.482l4.988-3.623a5.286,5.286,0,0,1,6.232,0l4.987,3.622a2.5,2.5,0,0,0,1.485.483h6.162a5.285,5.285,0,0,1,5.041,3.663l1.9,5.861a2.513,2.513,0,0,0,.917,1.262l4.987,3.623a5.289,5.289,0,0,1,1.926,5.926l-1.9,5.862a2.494,2.494,0,0,0,0,1.559l1.9,5.863a5.29,5.29,0,0,1-1.926,5.927L81.482,50.79a2.51,2.51,0,0,0-.918,1.264l-1.9,5.86a5.286,5.286,0,0,1-5.041,3.662H67.455a2.5,2.5,0,0,0-1.483.482l-4.988,3.623A5.291,5.291,0,0,1,57.868,66.7ZM42.119,10.4a2.517,2.517,0,0,0-2.4,1.745L37.812,18a5.271,5.271,0,0,1-1.928,2.65L30.9,24.275a2.521,2.521,0,0,0-.918,2.825l1.9,5.861a5.252,5.252,0,0,1,0,3.277l-1.9,5.86a2.52,2.52,0,0,0,.918,2.825l4.985,3.622a5.274,5.274,0,0,1,1.926,2.648l1.9,5.863a2.517,2.517,0,0,0,2.4,1.746h6.162A5.261,5.261,0,0,1,51.4,59.816l4.985,3.622a2.517,2.517,0,0,0,2.969,0l4.987-3.622A5.258,5.258,0,0,1,67.455,58.8h6.162a2.517,2.517,0,0,0,2.4-1.745l1.9-5.862a5.271,5.271,0,0,1,1.928-2.65l4.984-3.622a2.521,2.521,0,0,0,.918-2.825l-1.9-5.861a5.252,5.252,0,0,1,0-3.277l1.9-5.86a2.52,2.52,0,0,0-.918-2.825l-4.985-3.622A5.274,5.274,0,0,1,77.924,18l-1.9-5.863a2.517,2.517,0,0,0-2.4-1.746H67.455a5.261,5.261,0,0,1-3.117-1.013L59.353,5.761a2.517,2.517,0,0,0-2.969,0L51.4,9.383A5.258,5.258,0,0,1,48.281,10.4H42.119Z" transform="translate(-27.082 -2.5)" fill="#72c4c7"/></g><g transform="translate(37.405 20.407)"><path d="M48.425,41.075a1.386,1.386,0,0,1-.981-.406L38.3,31.524a1.387,1.387,0,0,1,1.962-1.962l8.163,8.163L68.051,18.1a1.387,1.387,0,1,1,1.962,1.962L49.406,40.668a1.386,1.386,0,0,1-.981.406Z" transform="translate(-37.894 -17.692)" fill="#72c4c7"/></g><g transform="translate(95.308 30.712)"><path d="M91.639,28.137H82.385a1.387,1.387,0,0,1,0-2.774h9.254a1.387,1.387,0,0,1,0,2.774Z" transform="translate(-80.998 -25.362)" fill="#72c4c7"/></g><g transform="translate(90.004 5.566)"><path d="M78.438,13.869a1.387,1.387,0,0,1-.669-2.6l8.113-4.451a1.388,1.388,0,0,1,1.336,2.433L79.1,13.7A1.39,1.39,0,0,1,78.438,13.869Z" transform="translate(-77.049 -6.644)" fill="#72c4c7"/></g><g transform="translate(90.004 51.406)"><path d="M86.549,47.993a1.391,1.391,0,0,1-.666-.171l-8.113-4.451A1.388,1.388,0,0,1,79.1,40.939l8.113,4.451a1.387,1.387,0,0,1-.669,2.6Z" transform="translate(-77.049 -40.768)" fill="#72c4c7"/></g><g transform="translate(0 30.712)"><path d="M20.689,28.137H11.436a1.387,1.387,0,0,1,0-2.774h9.254a1.387,1.387,0,0,1,0,2.774Z" transform="translate(-10.048 -25.362)" fill="#72c4c7"/></g><g transform="translate(6.443 5.566)"><path d="M24.345,13.869a1.39,1.39,0,0,1-.667-.171L15.565,9.247A1.388,1.388,0,0,1,16.9,6.814l8.113,4.451a1.387,1.387,0,0,1-.669,2.6Z" transform="translate(-14.845 -6.644)" fill="#72c4c7"/></g><g transform="translate(6.443 51.406)"><path d="M16.234,47.993a1.387,1.387,0,0,1-.669-2.6l8.113-4.451a1.388,1.388,0,0,1,1.336,2.433L16.9,47.823A1.391,1.391,0,0,1,16.234,47.993Z" transform="translate(-14.845 -40.768)" fill="#72c4c7"/></g></g></g></g></svg>