<svg xmlns="http://www.w3.org/2000/svg" width="24" height="24" viewBox="0 0 24 24"><g transform="translate(-125 -12)"><g transform="translate(-22 -1421)"><rect width="24" height="24" transform="translate(147 1433)" fill="#6b7280" opacity="0"/><g transform="translate(147.823 1433.25)"><g transform="translate(3.164 1.75)"><path d="M3.776-.5A4.293,4.293,0,1,1-.5,3.793,4.289,4.289,0,0,1,3.776-.5Zm0,7.586A3.293,3.293,0,1,0,.5,3.793,3.288,3.288,0,0,0,3.776,7.086Z" transform="translate(4.238)" fill="#bd0d44"/><path d="M11.177,19.216A22.141,22.141,0,0,1,4.488,18.18a2.619,2.619,0,0,1-1.6-1.415,2.56,2.56,0,0,1-.012-2.084,9.053,9.053,0,0,1,16.593,0,2.559,2.559,0,0,1-.012,2.083,2.619,2.619,0,0,1-1.6,1.416A22.141,22.141,0,0,1,11.177,19.216Zm0-8.966A8.08,8.08,0,0,0,3.8,15.084,1.538,1.538,0,0,0,3.8,16.353a1.618,1.618,0,0,0,.986.874,21.142,21.142,0,0,0,6.388.989,21.142,21.142,0,0,0,6.388-.989,1.618,1.618,0,0,0,.986-.874,1.537,1.537,0,0,0,.008-1.268A8.08,8.08,0,0,0,11.177,10.25Z" transform="translate(-3.164 1.284)" fill="#bd0d44"/></g></g></g></g></svg>